# Blender 3.5.1
# www.blender.org
mtllib LMini1_Final.mtl
o LMini1_LP
v 1.436859 0.000000 0.000000
v 1.415030 -0.000000 -0.249508
v 1.350206 -0.000000 -0.491435
v 1.244357 -0.000000 -0.718430
v 1.100698 -0.000000 -0.923595
v 0.923595 -0.000000 -1.100698
v 0.718430 -0.000000 -1.244357
v 0.491435 -0.000000 -1.350206
v 0.249508 -0.000000 -1.415030
v 0.000000 -0.000000 -1.436859
v -0.249508 -0.000000 -1.415030
v -0.491435 -0.000000 -1.350206
v -0.718429 -0.000000 -1.244357
v -0.923595 -0.000000 -1.100698
v -1.100698 -0.000000 -0.923596
v -1.244356 -0.000000 -0.718430
v -1.350206 -0.000000 -0.491435
v -1.415030 -0.000000 -0.249508
v -1.436859 -0.000000 -0.000001
v -1.415030 0.000000 0.249507
v -1.350206 0.000000 0.491434
v -1.244357 0.000000 0.718429
v -1.100698 0.000000 0.923595
v -0.923596 0.000000 1.100698
v -0.718430 0.000000 1.244356
v -0.491435 0.000000 1.350206
v -0.249509 0.000000 1.415030
v -0.000001 0.000000 1.436859
v 0.249507 0.000000 1.415030
v 0.491434 0.000000 1.350206
v 0.718429 0.000000 1.244357
v 0.923595 0.000000 1.100699
v 1.100697 0.000000 0.923596
v 1.244356 0.000000 0.718430
v 1.350206 0.000000 0.491436
v 1.415030 0.000000 0.249509
v 1.436859 0.115019 -0.000000
v 1.415030 0.115019 -0.249508
v 1.350206 0.115019 -0.491435
v 1.244357 0.115019 -0.718430
v 1.100698 0.115019 -0.923595
v 0.923595 0.115019 -1.100698
v 0.718430 0.115019 -1.244357
v 0.491435 0.115019 -1.350206
v 0.249508 0.115019 -1.415030
v 0.000000 0.115019 -1.436859
v -0.249508 0.115019 -1.415030
v -0.491435 0.115019 -1.350206
v -0.718429 0.115019 -1.244357
v -0.923595 0.115019 -1.100698
v -1.100698 0.115019 -0.923596
v -1.244356 0.115019 -0.718430
v -1.350206 0.115019 -0.491435
v -1.415030 0.115019 -0.249508
v -1.436859 0.115019 -0.000001
v -1.415030 0.115019 0.249507
v -1.350206 0.115019 0.491434
v -1.244357 0.115019 0.718429
v -1.100698 0.115019 0.923595
v -0.923596 0.115019 1.100698
v -0.718430 0.115019 1.244356
v -0.491435 0.115019 1.350206
v -0.249509 0.115019 1.415030
v -0.000001 0.115019 1.436859
v 0.249507 0.115019 1.415030
v 0.491434 0.115019 1.350206
v 0.718429 0.115019 1.244357
v 0.923595 0.115019 1.100698
v 1.100697 0.115019 0.923596
v 1.244356 0.115019 0.718430
v 1.350206 0.115019 0.491436
v 1.415030 0.115019 0.249509
v 1.334985 0.115019 -0.000000
v 1.314704 0.115019 -0.231818
v 1.254476 0.115019 -0.456592
v 1.156131 0.115019 -0.667493
v 1.022658 0.115019 -0.858112
v 0.858112 0.115019 -1.022658
v 0.667493 0.115019 -1.156132
v 0.456592 0.115019 -1.254476
v 0.231818 0.115019 -1.314704
v 0.000000 0.115019 -1.334985
v -0.231818 0.115019 -1.314704
v -0.456592 0.115019 -1.254476
v -0.667493 0.115019 -1.156132
v -0.858112 0.115019 -1.022658
v -1.022658 0.115019 -0.858112
v -1.156131 0.115019 -0.667493
v -1.254476 0.115019 -0.456592
v -1.314704 0.115019 -0.231818
v -1.334985 0.115019 -0.000001
v -1.314704 0.115019 0.231817
v -1.254476 0.115019 0.456591
v -1.156132 0.115019 0.667492
v -1.022659 0.115019 0.858112
v -0.858112 0.115019 1.022658
v -0.667493 0.115019 1.156131
v -0.456592 0.115019 1.254476
v -0.231818 0.115019 1.314704
v -0.000001 0.115019 1.334985
v 0.231817 0.115019 1.314704
v 0.456591 0.115019 1.254476
v 0.667492 0.115019 1.156132
v 0.858112 0.115019 1.022659
v 1.022658 0.115019 0.858113
v 1.156131 0.115019 0.667493
v 1.254476 0.115019 0.456593
v 1.314704 0.115019 0.231819
v 1.334985 0.199999 -0.000000
v 1.314704 0.199999 -0.231818
v 1.254476 0.199999 -0.456592
v 1.156131 0.199999 -0.667493
v 1.022658 0.199999 -0.858112
v 0.858112 0.199999 -1.022658
v 0.667493 0.199999 -1.156131
v 0.456592 0.199999 -1.254476
v 0.231818 0.199999 -1.314704
v 0.000000 0.199999 -1.334985
v -0.231818 0.199999 -1.314704
v -0.456592 0.199999 -1.254476
v -0.667493 0.199999 -1.156131
v -0.858112 0.199999 -1.022658
v -1.022658 0.199999 -0.858112
v -1.156131 0.199999 -0.667493
v -1.254476 0.199999 -0.456592
v -1.314704 0.199999 -0.231818
v -1.334985 0.199999 -0.000001
v -1.314704 0.199999 0.231817
v -1.254476 0.199999 0.456591
v -1.156132 0.199999 0.667492
v -1.022659 0.199999 0.858112
v -0.858112 0.199999 1.022658
v -0.667493 0.199999 1.156131
v -0.456592 0.199999 1.254476
v -0.231818 0.199999 1.314704
v -0.000001 0.199999 1.334985
v 0.231817 0.199999 1.314704
v 0.456591 0.199999 1.254476
v 0.667492 0.199999 1.156132
v 0.858112 0.199999 1.022659
v 1.022658 0.199999 0.858113
v 1.156131 0.199999 0.667494
v 1.254476 0.199999 0.456593
v 1.314704 0.199999 0.231819
v -0.000000 -0.000000 -0.000000
v -0.000000 0.199999 -0.000000
v -1.409844 0.200009 0.062500
v 1.409844 0.200009 0.062500
v -1.409844 2.145603 0.062500
v 1.033818 2.521629 0.062500
v 1.315837 2.427623 0.062500
v 1.409844 2.145604 0.062500
v 1.403968 2.233735 0.062500
v 1.386342 2.310116 0.062500
v 1.356965 2.374744 0.062500
v 1.121949 2.515753 0.062500
v 1.198329 2.498127 0.062500
v 1.262959 2.468750 0.062500
v 1.033818 2.521629 -0.062500
v 1.356966 2.374744 -0.062500
v -1.386342 2.310116 -0.062500
v -1.356965 2.374744 -0.062500
v -1.315837 2.427623 0.062500
v -1.033818 2.521629 0.062500
v -1.121950 2.515753 0.062500
v -1.198329 2.498127 0.062500
v -1.262959 2.468750 0.062500
v -1.403969 2.233735 0.062500
v -1.386342 2.310115 0.062500
v -1.356966 2.374744 0.062500
v -1.409844 0.200009 -0.062500
v -1.409844 2.145604 -0.062500
v 1.409844 2.145604 -0.062500
v 1.409844 0.200009 -0.062500
v -1.033818 2.521629 -0.062500
v 1.121949 2.515753 -0.062500
v -1.121950 2.515753 -0.062500
v 1.403968 2.233735 -0.062500
v -1.403969 2.233735 -0.062500
v 1.386342 2.310116 -0.062500
v 1.315838 2.427623 -0.062500
v -1.315837 2.427623 -0.062500
v 1.262959 2.468750 -0.062500
v -1.262959 2.468750 -0.062500
v 1.198330 2.498127 -0.062500
v -1.198329 2.498127 -0.062500
vn 1.0000 -0.0000 -0.0000
vn 0.9848 -0.0000 -0.1736
vn 0.9397 -0.0000 -0.3420
vn 0.8660 -0.0000 -0.5000
vn 0.7660 -0.0000 -0.6428
vn 0.6428 -0.0000 -0.7660
vn 0.5000 -0.0000 -0.8660
vn 0.3420 -0.0000 -0.9397
vn 0.1736 -0.0000 -0.9848
vn -0.0000 -0.0000 -1.0000
vn -0.1736 -0.0000 -0.9848
vn -0.3420 -0.0000 -0.9397
vn -0.5000 -0.0000 -0.8660
vn -0.6428 -0.0000 -0.7660
vn -0.7660 -0.0000 -0.6428
vn -0.8660 -0.0000 -0.5000
vn -0.9397 -0.0000 -0.3420
vn -0.9848 -0.0000 -0.1736
vn -1.0000 -0.0000 -0.0000
vn -0.9848 -0.0000 0.1736
vn -0.9397 -0.0000 0.3420
vn -0.8660 -0.0000 0.5000
vn -0.7660 -0.0000 0.6428
vn -0.6428 -0.0000 0.7660
vn -0.5000 -0.0000 0.8660
vn -0.3420 -0.0000 0.9397
vn -0.1736 -0.0000 0.9848
vn -0.0000 -0.0000 1.0000
vn 0.1736 -0.0000 0.9848
vn 0.3420 -0.0000 0.9397
vn 0.5000 -0.0000 0.8660
vn 0.6428 -0.0000 0.7660
vn 0.7660 -0.0000 0.6428
vn 0.8660 -0.0000 0.5000
vn 0.9397 -0.0000 0.3420
vn 0.9848 -0.0000 0.1736
vn -0.0000 1.0000 -0.0000
vn -0.0000 -1.0000 -0.0000
vn 0.0333 0.9994 -0.0000
vn -0.0333 0.9994 -0.0000
vn 0.9994 0.0333 -0.0000
vn -0.9994 0.0333 -0.0000
vn 0.9893 0.1462 -0.0000
vn 0.9471 0.3209 -0.0000
vn 0.8557 0.5174 -0.0000
vn 0.7071 0.7071 -0.0000
vn -0.9893 0.1462 -0.0000
vn -0.9471 0.3209 -0.0000
vn -0.8557 0.5174 -0.0000
vn -0.7071 0.7071 -0.0000
vn 0.1462 0.9893 -0.0000
vn 0.3209 0.9471 -0.0000
vn 0.5174 0.8557 -0.0000
vn -0.1462 0.9893 -0.0000
vn -0.3209 0.9471 -0.0000
vn -0.5174 0.8557 -0.0000
vt 0.970657 0.965014
vt 0.481246 0.127294
vt 0.970657 0.992193
vt 0.970656 0.013744
vt 0.476700 0.155994
vt 0.970656 0.040923
vt 0.477207 0.185048
vt 0.970656 0.068102
vt 0.482752 0.213572
vt 0.970656 0.095281
vt 0.493165 0.240700
vt 0.970656 0.122461
vt 0.508131 0.265607
vt 0.970656 0.149640
vt 0.527195 0.287537
vt 0.970656 0.176819
vt 0.549777 0.305824
vt 0.970656 0.203998
vt 0.575192 0.319912
vt 0.970656 0.231177
vt 0.602666 0.329372
vt 0.970656 0.258356
vt 0.631367 0.333918
vt 0.970656 0.285535
vt 0.660420 0.333411
vt 0.970656 0.312714
vt 0.688944 0.327866
vt 0.970657 0.339893
vt 0.716072 0.317453
vt 0.970657 0.367073
vt 0.740979 0.302487
vt 0.970657 0.394252
vt 0.762910 0.283423
vt 0.970657 0.421431
vt 0.781196 0.260841
vt 0.970657 0.448610
vt 0.795284 0.235426
vt 0.970656 0.475789
vt 0.804744 0.207951
vt 0.970656 0.502968
vt 0.809290 0.179251
vt 0.970656 0.530148
vt 0.808783 0.150198
vt 0.970656 0.557327
vt 0.803238 0.121674
vt 0.970656 0.584506
vt 0.792825 0.094546
vt 0.970656 0.611685
vt 0.777859 0.069638
vt 0.970656 0.638864
vt 0.758795 0.047708
vt 0.970656 0.666043
vt 0.736213 0.029421
vt 0.970656 0.693223
vt 0.710799 0.015334
vt 0.970656 0.720402
vt 0.683324 0.005873
vt 0.970656 0.747581
vt 0.654624 0.001328
vt 0.970656 0.774760
vt 0.625570 0.001835
vt 0.970656 0.801939
vt 0.597046 0.007379
vt 0.970656 0.829118
vt 0.569918 0.017793
vt 0.970656 0.856297
vt 0.545011 0.032759
vt 0.970656 0.883477
vt 0.523080 0.051822
vt 0.970656 0.910656
vt 0.504794 0.074404
vt 0.970656 0.937835
vt 0.490706 0.099819
vt 0.946420 0.965014
vt 0.247726 0.017842
vt 0.946420 0.992193
vt 0.946420 0.013744
vt 0.272892 0.032963
vt 0.946420 0.040923
vt 0.295050 0.052225
vt 0.946420 0.068102
vt 0.313527 0.075042
vt 0.946420 0.095281
vt 0.327761 0.100720
vt 0.946420 0.122461
vt 0.337319 0.128480
vt 0.946420 0.149640
vt 0.341912 0.157479
vt 0.946420 0.176819
vt 0.341400 0.186834
vt 0.946420 0.203998
vt 0.335797 0.215654
vt 0.946420 0.231177
vt 0.325276 0.243064
vt 0.946420 0.258356
vt 0.310154 0.268231
vt 0.946420 0.285535
vt 0.290893 0.290389
vt 0.946420 0.312714
vt 0.268076 0.308865
vt 0.946420 0.339893
vt 0.242397 0.323099
vt 0.946420 0.367073
vt 0.214637 0.332658
vt 0.946420 0.394252
vt 0.185639 0.337251
vt 0.946420 0.421431
vt 0.156283 0.336739
vt 0.946420 0.448610
vt 0.127463 0.331136
vt 0.946420 0.475789
vt 0.100053 0.320615
vt 0.946420 0.502968
vt 0.074887 0.305493
vt 0.946420 0.530148
vt 0.052729 0.286232
vt 0.946420 0.557327
vt 0.034252 0.263415
vt 0.946420 0.584506
vt 0.020018 0.237736
vt 0.946420 0.611685
vt 0.010459 0.209976
vt 0.946420 0.638864
vt 0.005867 0.180978
vt 0.946420 0.666043
vt 0.006379 0.151622
vt 0.946420 0.693223
vt 0.011981 0.122802
vt 0.946420 0.720402
vt 0.022503 0.095392
vt 0.946420 0.747581
vt 0.037624 0.070226
vt 0.946420 0.774760
vt 0.056886 0.048068
vt 0.946420 0.801939
vt 0.079703 0.029591
vt 0.946420 0.829118
vt 0.105381 0.015357
vt 0.946420 0.856297
vt 0.133142 0.005798
vt 0.946420 0.883477
vt 0.162140 0.001205
vt 0.946420 0.910656
vt 0.191495 0.001718
vt 0.946420 0.937835
vt 0.220316 0.007320
vt 0.242490 0.028575
vt 0.996937 0.014250
vt 0.996937 0.992191
vt 0.265872 0.042624
vt 0.996937 0.041415
vt 0.286460 0.060520
vt 0.996937 0.068579
vt 0.303626 0.081719
vt 0.996937 0.095747
vt 0.316851 0.105578
vt 0.996937 0.122911
vt 0.325732 0.131370
vt 0.996937 0.150076
vt 0.329999 0.158312
vt 0.996937 0.177241
vt 0.329523 0.185586
vt 0.996937 0.204407
vt 0.324318 0.212363
vt 0.996937 0.231571
vt 0.314542 0.237829
vt 0.996937 0.258736
vt 0.300493 0.261211
vt 0.996937 0.285901
vt 0.282597 0.281798
vt 0.996937 0.313066
vt 0.261398 0.298965
vt 0.996937 0.340230
vt 0.237540 0.312190
vt 0.996937 0.367395
vt 0.211748 0.321071
vt 0.996937 0.394560
vt 0.184805 0.325338
vt 0.996937 0.421727
vt 0.157532 0.324862
vt 0.996937 0.448892
vt 0.130755 0.319657
vt 0.996937 0.476056
vt 0.105288 0.309881
vt 0.996937 0.503221
vt 0.081906 0.295832
vt 0.996937 0.530386
vt 0.061319 0.277936
vt 0.996937 0.557550
vt 0.044153 0.256737
vt 0.996937 0.584716
vt 0.030928 0.232879
vt 0.996937 0.611881
vt 0.022047 0.207087
vt 0.996937 0.639046
vt 0.017779 0.180144
vt 0.996937 0.666210
vt 0.018255 0.152870
vt 0.996937 0.693375
vt 0.023460 0.126093
vt 0.996937 0.720540
vt 0.033236 0.100627
vt 0.996937 0.747707
vt 0.047285 0.077245
vt 0.996937 0.774872
vt 0.065182 0.056658
vt 0.996937 0.802037
vt 0.086381 0.039491
vt 0.996937 0.829201
vt 0.110238 0.026267
vt 0.996937 0.856366
vt 0.136030 0.017386
vt 0.996937 0.883531
vt 0.162973 0.013118
vt 0.996937 0.910695
vt 0.190247 0.013594
vt 0.996937 0.937860
vt 0.217024 0.018799
vt 0.996937 0.965026
vt 0.978213 0.014250
vt 0.978213 0.992191
vt 0.264487 0.044303
vt 0.978213 0.041415
vt 0.284863 0.062015
vt 0.978213 0.068579
vt 0.301853 0.082996
vt 0.978213 0.095747
vt 0.314941 0.106609
vt 0.978213 0.122911
vt 0.323731 0.132136
vt 0.978213 0.150076
vt 0.327954 0.158801
vt 0.978213 0.177241
vt 0.327483 0.185794
vt 0.978213 0.204407
vt 0.322332 0.212296
vt 0.978213 0.231571
vt 0.312657 0.237501
vt 0.978213 0.258736
vt 0.298752 0.260642
vt 0.978213 0.285901
vt 0.281040 0.281018
vt 0.978213 0.313066
vt 0.260059 0.298008
vt 0.978213 0.340230
vt 0.236446 0.311097
vt 0.978213 0.367395
vt 0.210919 0.319886
vt 0.978213 0.394560
vt 0.184254 0.324110
vt 0.978213 0.421727
vt 0.157260 0.323639
vt 0.978213 0.448892
vt 0.130759 0.318487
vt 0.978213 0.476056
vt 0.105554 0.308812
vt 0.978213 0.503221
vt 0.082412 0.294907
vt 0.978213 0.530386
vt 0.062037 0.277195
vt 0.978213 0.557550
vt 0.045047 0.256214
vt 0.978213 0.584716
vt 0.031958 0.232601
vt 0.978213 0.611881
vt 0.023168 0.207074
vt 0.978213 0.639046
vt 0.018945 0.180409
vt 0.978213 0.666210
vt 0.019416 0.153416
vt 0.978213 0.693375
vt 0.024567 0.126914
vt 0.978213 0.720540
vt 0.034242 0.101709
vt 0.978213 0.747707
vt 0.048147 0.078568
vt 0.978213 0.774872
vt 0.065859 0.058192
vt 0.978213 0.802037
vt 0.086841 0.041202
vt 0.978213 0.829201
vt 0.110453 0.028113
vt 0.978213 0.856366
vt 0.135980 0.019323
vt 0.978213 0.883531
vt 0.162646 0.015100
vt 0.978213 0.910695
vt 0.189639 0.015571
vt 0.978213 0.937860
vt 0.216141 0.020723
vt 0.978213 0.965026
vt 0.241345 0.030398
vt 0.642995 0.167623
vt 0.173450 0.169605
vt 0.873350 0.016060
vt -0.000000 0.339163
vt 0.939995 0.008714
vt 0.873350 0.422121
vt 0.806475 0.339163
vt 0.939995 0.992951
vt 0.939995 0.234615
vt -0.000000 0.892919
vt 0.698926 0.999944
vt 0.939995 0.653266
vt 0.939995 0.804791
vt 0.779588 0.973188
vt 0.939995 0.838931
vt 0.806475 0.892919
vt 0.939995 0.829252
vt 0.804794 0.918003
vt 0.939995 0.820580
vt 0.799753 0.939743
vt 0.939995 0.812570
vt 0.791351 0.958137
vt 0.939995 0.778430
vt 0.724133 0.998272
vt 0.939995 0.788109
vt 0.745978 0.993255
vt 0.939995 0.796781
vt 0.764463 0.984893
vt 0.925482 0.653266
vt 0.107549 0.999944
vt 0.925482 0.812570
vt 0.015124 0.958137
vt 0.925482 0.362373
vt 0.799753 0.939743
vt 0.925482 0.371045
vt 0.791351 0.958137
vt 0.939995 0.379055
vt 0.026887 0.973188
vt 0.107549 0.999944
vt 0.939995 0.413195
vt 0.939995 0.403516
vt 0.082342 0.998272
vt 0.939995 0.394844
vt 0.060496 0.993255
vt 0.939995 0.386833
vt 0.042011 0.984894
vt 0.939995 0.352694
vt 0.001680 0.918003
vt 0.939995 0.362373
vt 0.006722 0.939743
vt 0.939995 0.371045
vt 0.015124 0.958137
vt 0.902354 0.016060
vt 0.925482 0.008714
vt 0.806475 0.339163
vt 0.925482 0.234615
vt 0.806475 0.892919
vt 0.925482 0.838931
vt -0.000000 0.892919
vt 0.902354 0.422121
vt 0.925482 0.992951
vt -0.000000 0.339163
vt 0.925482 0.413195
vt 0.698926 0.999944
vt 0.925482 0.778430
vt 0.082342 0.998272
vt 0.925482 0.403516
vt 0.724132 0.998272
vt 0.925482 0.829252
vt 0.001680 0.918003
vt 0.925482 0.352694
vt 0.804794 0.918003
vt 0.925482 0.820580
vt 0.006722 0.939743
vt 0.925482 0.804791
vt 0.026887 0.973188
vt 0.925482 0.379055
vt 0.779587 0.973188
vt 0.925482 0.796781
vt 0.042011 0.984893
vt 0.925482 0.386833
vt 0.764463 0.984893
vt 0.925482 0.788109
vt 0.060496 0.993255
vt 0.925482 0.394844
vt 0.745978 0.993255
s 1
usemtl 01_-_Default
f 1/1/1 2/3/2 38/76/2 37/74/1
f 2/4/2 3/6/3 39/79/3 38/77/2
f 3/6/3 4/8/4 40/81/4 39/79/3
f 4/8/4 5/10/5 41/83/5 40/81/4
f 5/10/5 6/12/6 42/85/6 41/83/5
f 6/12/6 7/14/7 43/87/7 42/85/6
f 7/14/7 8/16/8 44/89/8 43/87/7
f 8/16/8 9/18/9 45/91/9 44/89/8
f 9/18/9 10/20/10 46/93/10 45/91/9
f 10/20/10 11/22/11 47/95/11 46/93/10
f 11/22/11 12/24/12 48/97/12 47/95/11
f 12/24/12 13/26/13 49/99/13 48/97/12
f 13/26/13 14/28/14 50/101/14 49/99/13
f 14/28/14 15/30/15 51/103/15 50/101/14
f 15/30/15 16/32/16 52/105/16 51/103/15
f 16/32/16 17/34/17 53/107/17 52/105/16
f 17/34/17 18/36/18 54/109/18 53/107/17
f 18/36/18 19/38/19 55/111/19 54/109/18
f 19/38/19 20/40/20 56/113/20 55/111/19
f 20/40/20 21/42/21 57/115/21 56/113/20
f 21/42/21 22/44/22 58/117/22 57/115/21
f 22/44/22 23/46/23 59/119/23 58/117/22
f 23/46/23 24/48/24 60/121/24 59/119/23
f 24/48/24 25/50/25 61/123/25 60/121/24
f 25/50/25 26/52/26 62/125/26 61/123/25
f 26/52/26 27/54/27 63/127/27 62/125/26
f 27/54/27 28/56/28 64/129/28 63/127/27
f 28/56/28 29/58/29 65/131/29 64/129/28
f 29/58/29 30/60/30 66/133/30 65/131/29
f 30/60/30 31/62/31 67/135/31 66/133/30
f 31/62/31 32/64/32 68/137/32 67/135/31
f 32/64/32 33/66/33 69/139/33 68/137/32
f 33/66/33 34/68/34 70/141/34 69/139/33
f 34/68/34 35/70/35 71/143/35 70/141/34
f 35/70/35 36/72/36 72/145/36 71/143/35
f 36/72/36 1/1/1 37/74/1 72/145/36
f 37/75/37 38/78/37 74/150/37 73/147/37
f 38/78/37 39/80/37 75/152/37 74/150/37
f 39/80/37 40/82/37 76/154/37 75/152/37
f 40/82/37 41/84/37 77/156/37 76/154/37
f 41/84/37 42/86/37 78/158/37 77/156/37
f 42/86/37 43/88/37 79/160/37 78/158/37
f 43/88/37 44/90/37 80/162/37 79/160/37
f 44/90/37 45/92/37 81/164/37 80/162/37
f 45/92/37 46/94/37 82/166/37 81/164/37
f 46/94/37 47/96/37 83/168/37 82/166/37
f 47/96/37 48/98/37 84/170/37 83/168/37
f 48/98/37 49/100/37 85/172/37 84/170/37
f 49/100/37 50/102/37 86/174/37 85/172/37
f 50/102/37 51/104/37 87/176/37 86/174/37
f 51/104/37 52/106/37 88/178/37 87/176/37
f 52/106/37 53/108/37 89/180/37 88/178/37
f 53/108/37 54/110/37 90/182/37 89/180/37
f 54/110/37 55/112/37 91/184/37 90/182/37
f 55/112/37 56/114/37 92/186/37 91/184/37
f 56/114/37 57/116/37 93/188/37 92/186/37
f 57/116/37 58/118/37 94/190/37 93/188/37
f 58/118/37 59/120/37 95/192/37 94/190/37
f 59/120/37 60/122/37 96/194/37 95/192/37
f 60/122/37 61/124/37 97/196/37 96/194/37
f 61/124/37 62/126/37 98/198/37 97/196/37
f 62/126/37 63/128/37 99/200/37 98/198/37
f 63/128/37 64/130/37 100/202/37 99/200/37
f 64/130/37 65/132/37 101/204/37 100/202/37
f 65/132/37 66/134/37 102/206/37 101/204/37
f 66/134/37 67/136/37 103/208/37 102/206/37
f 67/136/37 68/138/37 104/210/37 103/208/37
f 68/138/37 69/140/37 105/212/37 104/210/37
f 69/140/37 70/142/37 106/214/37 105/212/37
f 70/142/37 71/144/37 107/216/37 106/214/37
f 71/144/37 72/146/37 108/218/37 107/216/37
f 72/146/37 37/75/37 73/147/37 108/218/37
f 73/148/1 74/151/2 110/223/2 109/220/1
f 74/151/2 75/153/3 111/225/3 110/223/2
f 75/153/3 76/155/4 112/227/4 111/225/3
f 76/155/4 77/157/5 113/229/5 112/227/4
f 77/157/5 78/159/6 114/231/6 113/229/5
f 78/159/6 79/161/7 115/233/7 114/231/6
f 79/161/7 80/163/8 116/235/8 115/233/7
f 80/163/8 81/165/9 117/237/9 116/235/8
f 81/165/9 82/167/10 118/239/10 117/237/9
f 82/167/10 83/169/11 119/241/11 118/239/10
f 83/169/11 84/171/12 120/243/12 119/241/11
f 84/171/12 85/173/13 121/245/13 120/243/12
f 85/173/13 86/175/14 122/247/14 121/245/13
f 86/175/14 87/177/15 123/249/15 122/247/14
f 87/177/15 88/179/16 124/251/16 123/249/15
f 88/179/16 89/181/17 125/253/17 124/251/16
f 89/181/17 90/183/18 126/255/18 125/253/17
f 90/183/18 91/185/19 127/257/19 126/255/18
f 91/185/19 92/187/20 128/259/20 127/257/19
f 92/187/20 93/189/21 129/261/21 128/259/20
f 93/189/21 94/191/22 130/263/22 129/261/21
f 94/191/22 95/193/23 131/265/23 130/263/22
f 95/193/23 96/195/24 132/267/24 131/265/23
f 96/195/24 97/197/25 133/269/25 132/267/24
f 97/197/25 98/199/26 134/271/26 133/269/25
f 98/199/26 99/201/27 135/273/27 134/271/26
f 99/201/27 100/203/28 136/275/28 135/273/27
f 100/203/28 101/205/29 137/277/29 136/275/28
f 101/205/29 102/207/30 138/279/30 137/277/29
f 102/207/30 103/209/31 139/281/31 138/279/30
f 103/209/31 104/211/32 140/283/32 139/281/31
f 104/211/32 105/213/33 141/285/33 140/283/32
f 105/213/33 106/215/34 142/287/34 141/285/33
f 106/215/34 107/217/35 143/289/35 142/287/34
f 107/217/35 108/219/36 144/291/36 143/289/35
f 108/219/36 73/149/1 109/221/1 144/291/36
f 109/222/37 110/224/37 146/294/37
f 110/224/37 111/226/37 146/294/37
f 111/226/37 112/228/37 146/294/37
f 112/228/37 113/230/37 146/294/37
f 113/230/37 114/232/37 146/294/37
f 114/232/37 115/234/37 146/294/37
f 115/234/37 116/236/37 146/294/37
f 116/236/37 117/238/37 146/294/37
f 117/238/37 118/240/37 146/294/37
f 118/240/37 119/242/37 146/294/37
f 119/242/37 120/244/37 146/294/37
f 120/244/37 121/246/37 146/294/37
f 121/246/37 122/248/37 146/294/37
f 122/248/37 123/250/37 146/294/37
f 123/250/37 124/252/37 146/294/37
f 124/252/37 125/254/37 146/294/37
f 125/254/37 126/256/37 146/294/37
f 126/256/37 127/258/37 146/294/37
f 127/258/37 128/260/37 146/294/37
f 128/260/37 129/262/37 146/294/37
f 129/262/37 130/264/37 146/294/37
f 130/264/37 131/266/37 146/294/37
f 131/266/37 132/268/37 146/294/37
f 132/268/37 133/270/37 146/294/37
f 133/270/37 134/272/37 146/294/37
f 134/272/37 135/274/37 146/294/37
f 135/274/37 136/276/37 146/294/37
f 136/276/37 137/278/37 146/294/37
f 137/278/37 138/280/37 146/294/37
f 138/280/37 139/282/37 146/294/37
f 139/282/37 140/284/37 146/294/37
f 140/284/37 141/286/37 146/294/37
f 141/286/37 142/288/37 146/294/37
f 142/288/37 143/290/37 146/294/37
f 143/290/37 144/292/37 146/294/37
f 144/292/37 109/222/37 146/294/37
f 2/5/38 1/2/38 145/293/38
f 3/7/38 2/5/38 145/293/38
f 4/9/38 3/7/38 145/293/38
f 5/11/38 4/9/38 145/293/38
f 6/13/38 5/11/38 145/293/38
f 7/15/38 6/13/38 145/293/38
f 8/17/38 7/15/38 145/293/38
f 9/19/38 8/17/38 145/293/38
f 10/21/38 9/19/38 145/293/38
f 11/23/38 10/21/38 145/293/38
f 12/25/38 11/23/38 145/293/38
f 13/27/38 12/25/38 145/293/38
f 14/29/38 13/27/38 145/293/38
f 15/31/38 14/29/38 145/293/38
f 16/33/38 15/31/38 145/293/38
f 17/35/38 16/33/38 145/293/38
f 18/37/38 17/35/38 145/293/38
f 19/39/38 18/37/38 145/293/38
f 20/41/38 19/39/38 145/293/38
f 21/43/38 20/41/38 145/293/38
f 22/45/38 21/43/38 145/293/38
f 23/47/38 22/45/38 145/293/38
f 24/49/38 23/47/38 145/293/38
f 25/51/38 24/49/38 145/293/38
f 26/53/38 25/51/38 145/293/38
f 27/55/38 26/53/38 145/293/38
f 28/57/38 27/55/38 145/293/38
f 29/59/38 28/57/38 145/293/38
f 30/61/38 29/59/38 145/293/38
f 31/63/38 30/61/38 145/293/38
f 32/65/38 31/63/38 145/293/38
f 33/67/38 32/65/38 145/293/38
f 34/69/38 33/67/38 145/293/38
f 35/71/38 34/69/38 145/293/38
f 36/73/38 35/71/38 145/293/38
f 1/2/38 36/73/38 145/293/38
f 148/298/38 147/295/38 171/345/38 174/352/38
f 150/304/39 159/321/39 175/355/40 164/332/40
f 148/299/28 152/308/28 149/302/28 147/296/28
f 174/353/1 173/350/41 152/307/41 148/300/1
f 147/297/19 149/301/42 172/348/42 171/346/19
f 164/331/28 165/334/28 156/316/28 150/303/28
f 152/307/41 173/350/41 178/361/43 153/309/43
f 153/309/43 178/361/43 180/365/44 154/311/44
f 154/311/44 180/365/44 160/323/45 155/313/45
f 155/313/45 160/323/45 181/367/46 151/305/46
f 172/348/42 149/301/42 168/339/47 179/363/47
f 179/363/47 168/339/47 169/341/48 161/325/48
f 161/325/48 169/341/48 170/343/49 162/327/49
f 162/327/49 170/343/49 163/329/50 182/369/50
f 159/321/39 150/304/39 156/315/51 176/357/51
f 176/357/51 156/315/51 157/317/52 185/375/52
f 185/375/52 157/317/52 158/319/53 183/371/53
f 183/371/53 158/319/53 151/305/46 181/367/46
f 164/332/40 175/355/40 177/359/54 165/333/54
f 165/333/54 177/359/54 186/377/55 166/335/55
f 166/335/55 186/377/55 184/373/56 167/337/56
f 167/337/56 184/373/56 182/369/50 163/329/50
f 149/302/28 152/308/28 153/310/28 168/340/28
f 168/340/28 153/310/28 154/312/28 169/342/28
f 169/342/28 154/312/28 155/314/28 170/344/28
f 170/344/28 155/314/28 151/306/28 163/330/28
f 163/330/28 151/306/28 158/320/28 167/338/28
f 167/338/28 158/320/28 157/318/28 166/336/28
f 166/336/28 157/318/28 156/316/28 165/334/28
f 171/347/10 172/349/10 173/351/10 174/354/10
f 159/322/10 176/358/10 177/360/10 175/356/10
f 173/351/10 172/349/10 179/364/10 178/362/10
f 178/362/10 179/364/10 161/326/10 180/366/10
f 180/366/10 161/326/10 162/328/10 160/324/10
f 160/324/10 162/328/10 182/370/10 181/368/10
f 181/368/10 182/370/10 184/374/10 183/372/10
f 183/372/10 184/374/10 186/378/10 185/376/10
f 185/376/10 186/378/10 177/360/10 176/358/10
