# Blender 4.1.0
# www.blender.org
mtllib LMini1_Final.mtl
o LMini1_LP
v 1.436859 0.000000 0.000000
v 1.415030 -0.000000 -0.249508
v 1.350206 -0.000000 -0.491435
v 1.244357 -0.000000 -0.718430
v 1.100698 -0.000000 -0.923595
v 0.923595 -0.000000 -1.100698
v 0.718430 -0.000000 -1.244357
v 0.491435 -0.000000 -1.350206
v 0.249508 -0.000000 -1.415030
v 0.000000 -0.000000 -1.436859
v -0.249508 -0.000000 -1.415030
v -0.491435 -0.000000 -1.350206
v -0.718429 -0.000000 -1.244357
v -0.923595 -0.000000 -1.100698
v -1.100698 -0.000000 -0.923596
v -1.244356 -0.000000 -0.718430
v -1.350206 -0.000000 -0.491435
v -1.415030 -0.000000 -0.249508
v -1.436859 -0.000000 -0.000001
v -1.415030 0.000000 0.249507
v -1.350206 0.000000 0.491434
v -1.244357 0.000000 0.718429
v -1.100698 0.000000 0.923595
v -0.923596 0.000000 1.100698
v -0.718430 0.000000 1.244356
v -0.491435 0.000000 1.350206
v -0.249509 0.000000 1.415030
v -0.000001 0.000000 1.436859
v 0.249507 0.000000 1.415030
v 0.491434 0.000000 1.350206
v 0.718429 0.000000 1.244357
v 0.923595 0.000000 1.100699
v 1.100697 0.000000 0.923596
v 1.244356 0.000000 0.718430
v 1.350206 0.000000 0.491436
v 1.415030 0.000000 0.249509
v 1.436859 0.115019 -0.000000
v 1.415030 0.115019 -0.249508
v 1.350206 0.115019 -0.491435
v 1.244357 0.115019 -0.718430
v 1.100698 0.115019 -0.923595
v 0.923595 0.115019 -1.100698
v 0.718430 0.115019 -1.244357
v 0.491435 0.115019 -1.350206
v 0.249508 0.115019 -1.415030
v 0.000000 0.115019 -1.436859
v -0.249508 0.115019 -1.415030
v -0.491435 0.115019 -1.350206
v -0.718429 0.115019 -1.244357
v -0.923595 0.115019 -1.100698
v -1.100698 0.115019 -0.923596
v -1.244356 0.115019 -0.718430
v -1.350206 0.115019 -0.491435
v -1.415030 0.115019 -0.249508
v -1.436859 0.115019 -0.000001
v -1.415030 0.115019 0.249507
v -1.350206 0.115019 0.491434
v -1.244357 0.115019 0.718429
v -1.100698 0.115019 0.923595
v -0.923596 0.115019 1.100698
v -0.718430 0.115019 1.244356
v -0.491435 0.115019 1.350206
v -0.249509 0.115019 1.415030
v -0.000001 0.115019 1.436859
v 0.249507 0.115019 1.415030
v 0.491434 0.115019 1.350206
v 0.718429 0.115019 1.244357
v 0.923595 0.115019 1.100698
v 1.100697 0.115019 0.923596
v 1.244356 0.115019 0.718430
v 1.350206 0.115019 0.491436
v 1.415030 0.115019 0.249509
v 1.334985 0.115019 -0.000000
v 1.314704 0.115019 -0.231818
v 1.254476 0.115019 -0.456592
v 1.156131 0.115019 -0.667493
v 1.022658 0.115019 -0.858112
v 0.858112 0.115019 -1.022658
v 0.667493 0.115019 -1.156132
v 0.456592 0.115019 -1.254476
v 0.231818 0.115019 -1.314704
v 0.000000 0.115019 -1.334985
v -0.231818 0.115019 -1.314704
v -0.456592 0.115019 -1.254476
v -0.667493 0.115019 -1.156132
v -0.858112 0.115019 -1.022658
v -1.022658 0.115019 -0.858112
v -1.156131 0.115019 -0.667493
v -1.254476 0.115019 -0.456592
v -1.314704 0.115019 -0.231818
v -1.334985 0.115019 -0.000001
v -1.314704 0.115019 0.231817
v -1.254476 0.115019 0.456591
v -1.156132 0.115019 0.667492
v -1.022659 0.115019 0.858112
v -0.858112 0.115019 1.022658
v -0.667493 0.115019 1.156131
v -0.456592 0.115019 1.254476
v -0.231818 0.115019 1.314704
v -0.000001 0.115019 1.334985
v 0.231817 0.115019 1.314704
v 0.456591 0.115019 1.254476
v 0.667492 0.115019 1.156132
v 0.858112 0.115019 1.022659
v 1.022658 0.115019 0.858113
v 1.156131 0.115019 0.667493
v 1.254476 0.115019 0.456593
v 1.314704 0.115019 0.231819
v 1.334985 0.199999 -0.000000
v 1.314704 0.199999 -0.231818
v 1.254476 0.199999 -0.456592
v 1.156131 0.199999 -0.667493
v 1.022658 0.199999 -0.858112
v 0.858112 0.199999 -1.022658
v 0.667493 0.199999 -1.156131
v 0.456592 0.199999 -1.254476
v 0.231818 0.199999 -1.314704
v 0.000000 0.199999 -1.334985
v -0.231818 0.199999 -1.314704
v -0.456592 0.199999 -1.254476
v -0.667493 0.199999 -1.156131
v -0.858112 0.199999 -1.022658
v -1.022658 0.199999 -0.858112
v -1.156131 0.199999 -0.667493
v -1.254476 0.199999 -0.456592
v -1.314704 0.199999 -0.231818
v -1.334985 0.199999 -0.000001
v -1.314704 0.199999 0.231817
v -1.254476 0.199999 0.456591
v -1.156132 0.199999 0.667492
v -1.022659 0.199999 0.858112
v -0.858112 0.199999 1.022658
v -0.667493 0.199999 1.156131
v -0.456592 0.199999 1.254476
v -0.231818 0.199999 1.314704
v -0.000001 0.199999 1.334985
v 0.231817 0.199999 1.314704
v 0.456591 0.199999 1.254476
v 0.667492 0.199999 1.156132
v 0.858112 0.199999 1.022659
v 1.022658 0.199999 0.858113
v 1.156131 0.199999 0.667494
v 1.254476 0.199999 0.456593
v 1.314704 0.199999 0.231819
v 0.000000 0.000000 0.000000
v 0.000000 0.199999 -0.000000
v -1.409844 0.200009 0.115393
v 1.409844 0.200009 0.115393
v -1.409844 2.145603 0.115392
v 1.033818 2.521629 0.115392
v 1.315837 2.427623 0.115392
v 1.409844 2.145604 0.115392
v 1.403968 2.233735 0.115392
v 1.386342 2.310116 0.115392
v 1.356965 2.374744 0.115392
v 1.121949 2.515753 0.115392
v 1.198329 2.498127 0.115392
v 1.262959 2.468750 0.115392
v 1.033818 2.521629 -0.115393
v 1.356966 2.374744 -0.115393
v -1.386342 2.310116 -0.115393
v -1.356965 2.374744 -0.115393
v -1.315837 2.427623 0.115392
v -1.033818 2.521629 0.115392
v -1.121950 2.515753 0.115392
v -1.198329 2.498127 0.115392
v -1.262959 2.468750 0.115392
v -1.403969 2.233735 0.115392
v -1.386342 2.310115 0.115392
v -1.356966 2.374744 0.115392
v -1.409844 0.200009 -0.115393
v -1.409844 2.145604 -0.115393
v 1.409844 2.145604 -0.115393
v 1.409844 0.200009 -0.115393
v -1.033818 2.521629 -0.115393
v 1.121949 2.515753 -0.115393
v -1.121950 2.515753 -0.115393
v 1.403968 2.233735 -0.115393
v -1.403969 2.233735 -0.115393
v 1.386342 2.310116 -0.115393
v 1.315838 2.427623 -0.115393
v -1.315837 2.427623 -0.115393
v 1.262959 2.468750 -0.115393
v -1.262959 2.468750 -0.115393
v 1.198330 2.498127 -0.115393
v -1.198329 2.498127 -0.115393
vn 1.0000 -0.0000 -0.0000
vn 0.9848 -0.0000 -0.1736
vn 0.9397 -0.0000 -0.3420
vn 0.8660 -0.0000 -0.5000
vn 0.7660 -0.0000 -0.6428
vn 0.6428 -0.0000 -0.7660
vn 0.5000 -0.0000 -0.8660
vn 0.3420 -0.0000 -0.9397
vn 0.1736 -0.0000 -0.9848
vn -0.0000 -0.0000 -1.0000
vn -0.1736 -0.0000 -0.9848
vn -0.3420 -0.0000 -0.9397
vn -0.5000 -0.0000 -0.8660
vn -0.6428 -0.0000 -0.7660
vn -0.7660 -0.0000 -0.6428
vn -0.8660 -0.0000 -0.5000
vn -0.9397 -0.0000 -0.3420
vn -0.9848 -0.0000 -0.1736
vn -1.0000 -0.0000 -0.0000
vn -0.9848 -0.0000 0.1736
vn -0.9397 -0.0000 0.3420
vn -0.8660 -0.0000 0.5000
vn -0.7660 -0.0000 0.6428
vn -0.6428 -0.0000 0.7660
vn -0.5000 -0.0000 0.8660
vn -0.3420 -0.0000 0.9397
vn -0.1736 -0.0000 0.9848
vn -0.0000 -0.0000 1.0000
vn 0.1736 -0.0000 0.9848
vn 0.3420 -0.0000 0.9397
vn 0.5000 -0.0000 0.8660
vn 0.6428 -0.0000 0.7660
vn 0.7660 -0.0000 0.6428
vn 0.8660 -0.0000 0.5000
vn 0.9397 -0.0000 0.3420
vn 0.9848 -0.0000 0.1736
vn -0.0000 1.0000 -0.0000
vn -0.0000 -1.0000 -0.0000
vn 0.0333 0.9994 -0.0000
vn -0.0333 0.9994 -0.0000
vn 0.9994 0.0333 -0.0000
vn -0.9994 0.0333 -0.0000
vn 0.9893 0.1462 -0.0000
vn 0.9471 0.3209 -0.0000
vn 0.8557 0.5174 -0.0000
vn 0.7071 0.7071 -0.0000
vn -0.9893 0.1462 -0.0000
vn -0.9471 0.3209 -0.0000
vn -0.8557 0.5174 -0.0000
vn -0.7071 0.7071 -0.0000
vn 0.1462 0.9893 -0.0000
vn 0.3209 0.9471 -0.0000
vn 0.5174 0.8557 -0.0000
vn -0.1462 0.9893 -0.0000
vn -0.3209 0.9471 -0.0000
vn -0.5174 0.8557 -0.0000
vt 0.970657 0.965014
vt 0.970657 0.992193
vt 0.946420 0.992193
vt 0.946420 0.965014
vt 0.970656 0.013744
vt 0.970656 0.040923
vt 0.946420 0.040923
vt 0.946420 0.013744
vt 0.970656 0.068102
vt 0.946420 0.068102
vt 0.970656 0.095281
vt 0.946420 0.095281
vt 0.970656 0.122461
vt 0.946420 0.122461
vt 0.970656 0.149640
vt 0.946420 0.149640
vt 0.970656 0.176819
vt 0.946420 0.176819
vt 0.970656 0.203998
vt 0.946420 0.203998
vt 0.970656 0.231177
vt 0.946420 0.231177
vt 0.970656 0.258356
vt 0.946420 0.258356
vt 0.970656 0.285535
vt 0.946420 0.285535
vt 0.970656 0.312714
vt 0.946420 0.312714
vt 0.970657 0.339893
vt 0.946420 0.339893
vt 0.970657 0.367073
vt 0.946420 0.367073
vt 0.970657 0.394252
vt 0.946420 0.394252
vt 0.970657 0.421431
vt 0.946420 0.421431
vt 0.970657 0.448610
vt 0.946420 0.448610
vt 0.970656 0.475789
vt 0.946420 0.475789
vt 0.970656 0.502968
vt 0.946420 0.502968
vt 0.970656 0.530148
vt 0.946420 0.530148
vt 0.970656 0.557327
vt 0.946420 0.557327
vt 0.970656 0.584506
vt 0.946420 0.584506
vt 0.970656 0.611685
vt 0.946420 0.611685
vt 0.970656 0.638864
vt 0.946420 0.638864
vt 0.970656 0.666043
vt 0.946420 0.666043
vt 0.970656 0.693223
vt 0.946420 0.693223
vt 0.970656 0.720402
vt 0.946420 0.720402
vt 0.970656 0.747581
vt 0.946420 0.747581
vt 0.970656 0.774760
vt 0.946420 0.774760
vt 0.970656 0.801939
vt 0.946420 0.801939
vt 0.970656 0.829118
vt 0.946420 0.829118
vt 0.970656 0.856297
vt 0.946420 0.856297
vt 0.970656 0.883477
vt 0.946420 0.883477
vt 0.970656 0.910656
vt 0.946420 0.910656
vt 0.970656 0.937835
vt 0.946420 0.937835
vt 0.247726 0.017842
vt 0.272892 0.032963
vt 0.265872 0.042624
vt 0.242490 0.028575
vt 0.295050 0.052225
vt 0.286460 0.060520
vt 0.313527 0.075042
vt 0.303626 0.081719
vt 0.327761 0.100720
vt 0.316851 0.105578
vt 0.337319 0.128480
vt 0.325732 0.131370
vt 0.341912 0.157479
vt 0.329999 0.158312
vt 0.341400 0.186834
vt 0.329523 0.185586
vt 0.335797 0.215654
vt 0.324318 0.212363
vt 0.325276 0.243064
vt 0.314542 0.237829
vt 0.310154 0.268231
vt 0.300493 0.261211
vt 0.290893 0.290389
vt 0.282597 0.281798
vt 0.268076 0.308865
vt 0.261398 0.298965
vt 0.242397 0.323099
vt 0.237540 0.312190
vt 0.214637 0.332658
vt 0.211748 0.321071
vt 0.185639 0.337251
vt 0.184805 0.325338
vt 0.156283 0.336739
vt 0.157532 0.324862
vt 0.127463 0.331136
vt 0.130755 0.319657
vt 0.100053 0.320615
vt 0.105288 0.309881
vt 0.074887 0.305493
vt 0.081906 0.295832
vt 0.052729 0.286232
vt 0.061319 0.277936
vt 0.034252 0.263415
vt 0.044153 0.256737
vt 0.020018 0.237736
vt 0.030928 0.232879
vt 0.010459 0.209976
vt 0.022047 0.207087
vt 0.005867 0.180978
vt 0.017779 0.180144
vt 0.006379 0.151622
vt 0.018255 0.152870
vt 0.011981 0.122802
vt 0.023460 0.126093
vt 0.022503 0.095392
vt 0.033236 0.100627
vt 0.037624 0.070226
vt 0.047285 0.077245
vt 0.056886 0.048068
vt 0.065182 0.056658
vt 0.079703 0.029591
vt 0.086381 0.039491
vt 0.105381 0.015357
vt 0.110238 0.026267
vt 0.133142 0.005798
vt 0.136030 0.017386
vt 0.162140 0.001205
vt 0.162973 0.013118
vt 0.191495 0.001718
vt 0.190247 0.013594
vt 0.220316 0.007320
vt 0.217024 0.018799
vt 0.996937 0.014250
vt 0.996937 0.041415
vt 0.978213 0.041415
vt 0.978213 0.014250
vt 0.996937 0.068579
vt 0.978213 0.068579
vt 0.996937 0.095747
vt 0.978213 0.095747
vt 0.996937 0.122911
vt 0.978213 0.122911
vt 0.996937 0.150076
vt 0.978213 0.150076
vt 0.996937 0.177241
vt 0.978213 0.177241
vt 0.996937 0.204407
vt 0.978213 0.204407
vt 0.996937 0.231571
vt 0.978213 0.231571
vt 0.996937 0.258736
vt 0.978213 0.258736
vt 0.996937 0.285901
vt 0.978213 0.285901
vt 0.996937 0.313066
vt 0.978213 0.313066
vt 0.996937 0.340230
vt 0.978213 0.340230
vt 0.996937 0.367395
vt 0.978213 0.367395
vt 0.996937 0.394560
vt 0.978213 0.394560
vt 0.996937 0.421727
vt 0.978213 0.421727
vt 0.996937 0.448892
vt 0.978213 0.448892
vt 0.996937 0.476056
vt 0.978213 0.476056
vt 0.996937 0.503221
vt 0.978213 0.503221
vt 0.996937 0.530386
vt 0.978213 0.530386
vt 0.996937 0.557550
vt 0.978213 0.557550
vt 0.996937 0.584716
vt 0.978213 0.584716
vt 0.996937 0.611881
vt 0.978213 0.611881
vt 0.996937 0.639046
vt 0.978213 0.639046
vt 0.996937 0.666210
vt 0.978213 0.666210
vt 0.996937 0.693375
vt 0.978213 0.693375
vt 0.996937 0.720540
vt 0.978213 0.720540
vt 0.996937 0.747707
vt 0.978213 0.747707
vt 0.996937 0.774872
vt 0.978213 0.774872
vt 0.996937 0.802037
vt 0.978213 0.802037
vt 0.996937 0.829201
vt 0.978213 0.829201
vt 0.996937 0.856366
vt 0.978213 0.856366
vt 0.996937 0.883531
vt 0.978213 0.883531
vt 0.996937 0.910695
vt 0.978213 0.910695
vt 0.996937 0.937860
vt 0.978213 0.937860
vt 0.996937 0.965026
vt 0.978213 0.965026
vt 0.996937 0.992191
vt 0.978213 0.992191
vt 0.264487 0.044303
vt 0.284863 0.062015
vt 0.173450 0.169605
vt 0.301853 0.082996
vt 0.314941 0.106609
vt 0.323731 0.132136
vt 0.327954 0.158801
vt 0.327483 0.185794
vt 0.322332 0.212296
vt 0.312657 0.237501
vt 0.298752 0.260642
vt 0.281040 0.281018
vt 0.260059 0.298008
vt 0.236446 0.311097
vt 0.210919 0.319886
vt 0.184254 0.324110
vt 0.157260 0.323639
vt 0.130759 0.318487
vt 0.105554 0.308812
vt 0.082412 0.294907
vt 0.062037 0.277195
vt 0.045047 0.256214
vt 0.031958 0.232601
vt 0.023168 0.207074
vt 0.018945 0.180409
vt 0.019416 0.153416
vt 0.024567 0.126914
vt 0.034242 0.101709
vt 0.048147 0.078568
vt 0.065859 0.058192
vt 0.086841 0.041202
vt 0.110453 0.028113
vt 0.135980 0.019323
vt 0.162646 0.015100
vt 0.189639 0.015571
vt 0.216141 0.020723
vt 0.241345 0.030398
vt 0.476700 0.155994
vt 0.481246 0.127294
vt 0.642995 0.167623
vt 0.477207 0.185048
vt 0.482752 0.213572
vt 0.493165 0.240700
vt 0.508131 0.265607
vt 0.527195 0.287537
vt 0.549777 0.305824
vt 0.575192 0.319912
vt 0.602666 0.329372
vt 0.631367 0.333918
vt 0.660420 0.333411
vt 0.688944 0.327866
vt 0.716072 0.317453
vt 0.740979 0.302487
vt 0.762910 0.283423
vt 0.781196 0.260841
vt 0.795284 0.235426
vt 0.804744 0.207951
vt 0.809290 0.179251
vt 0.808783 0.150198
vt 0.803238 0.121674
vt 0.792825 0.094546
vt 0.777859 0.069638
vt 0.758795 0.047708
vt 0.736213 0.029421
vt 0.710799 0.015334
vt 0.683324 0.005873
vt 0.654624 0.001328
vt 0.625570 0.001835
vt 0.597046 0.007379
vt 0.569918 0.017793
vt 0.545011 0.032759
vt 0.523080 0.051822
vt 0.504794 0.074404
vt 0.490706 0.099819
vt 0.873350 0.422121
vt 0.873350 0.016060
vt 0.902354 0.016060
vt 0.902354 0.422121
vt 0.939995 0.653266
vt 0.925482 0.653266
vt 0.925482 0.413195
vt 0.939995 0.413195
vt 0.806475 0.339163
vt 0.806475 0.892919
vt -0.000000 0.892919
vt -0.000000 0.339163
vt 0.925482 0.992951
vt 0.925482 0.838931
vt 0.939995 0.838931
vt 0.939995 0.992951
vt 0.939995 0.008714
vt 0.939995 0.234615
vt 0.925482 0.234615
vt 0.925482 0.008714
vt 0.107549 0.999944
vt 0.082342 0.998272
vt 0.724133 0.998272
vt 0.698926 0.999944
vt 0.925482 0.829252
vt 0.939995 0.829252
vt 0.925482 0.820580
vt 0.939995 0.820580
vt 0.925482 0.812570
vt 0.939995 0.812570
vt 0.925482 0.804791
vt 0.939995 0.804791
vt 0.939995 0.352694
vt 0.925482 0.352694
vt 0.939995 0.362373
vt 0.925482 0.362373
vt 0.939995 0.371045
vt 0.925482 0.371045
vt 0.939995 0.379055
vt 0.925482 0.379055
vt 0.939995 0.778430
vt 0.925482 0.778430
vt 0.939995 0.788109
vt 0.925482 0.788109
vt 0.939995 0.796781
vt 0.925482 0.796781
vt 0.925482 0.403516
vt 0.939995 0.403516
vt 0.925482 0.394844
vt 0.939995 0.394844
vt 0.925482 0.386833
vt 0.939995 0.386833
vt 0.804794 0.918003
vt 0.001680 0.918003
vt 0.799753 0.939743
vt 0.006722 0.939743
vt 0.791351 0.958137
vt 0.015124 0.958137
vt 0.779588 0.973188
vt 0.026887 0.973188
vt 0.764463 0.984893
vt 0.042011 0.984894
vt 0.745978 0.993255
vt 0.060496 0.993255
vt 0.724132 0.998272
vt 0.779587 0.973188
vt 0.042011 0.984893
vt 0.000000 0.000000
s 1
usemtl 01_-_Default
f 1/1/1 2/2/2 38/3/2 37/4/1
f 2/5/2 3/6/3 39/7/3 38/8/2
f 3/6/3 4/9/4 40/10/4 39/7/3
f 4/9/4 5/11/5 41/12/5 40/10/4
f 5/11/5 6/13/6 42/14/6 41/12/5
f 6/13/6 7/15/7 43/16/7 42/14/6
f 7/15/7 8/17/8 44/18/8 43/16/7
f 8/17/8 9/19/9 45/20/9 44/18/8
f 9/19/9 10/21/10 46/22/10 45/20/9
f 10/21/10 11/23/11 47/24/11 46/22/10
f 11/23/11 12/25/12 48/26/12 47/24/11
f 12/25/12 13/27/13 49/28/13 48/26/12
f 13/27/13 14/29/14 50/30/14 49/28/13
f 14/29/14 15/31/15 51/32/15 50/30/14
f 15/31/15 16/33/16 52/34/16 51/32/15
f 16/33/16 17/35/17 53/36/17 52/34/16
f 17/35/17 18/37/18 54/38/18 53/36/17
f 18/37/18 19/39/19 55/40/19 54/38/18
f 19/39/19 20/41/20 56/42/20 55/40/19
f 20/41/20 21/43/21 57/44/21 56/42/20
f 21/43/21 22/45/22 58/46/22 57/44/21
f 22/45/22 23/47/23 59/48/23 58/46/22
f 23/47/23 24/49/24 60/50/24 59/48/23
f 24/49/24 25/51/25 61/52/25 60/50/24
f 25/51/25 26/53/26 62/54/26 61/52/25
f 26/53/26 27/55/27 63/56/27 62/54/26
f 27/55/27 28/57/28 64/58/28 63/56/27
f 28/57/28 29/59/29 65/60/29 64/58/28
f 29/59/29 30/61/30 66/62/30 65/60/29
f 30/61/30 31/63/31 67/64/31 66/62/30
f 31/63/31 32/65/32 68/66/32 67/64/31
f 32/65/32 33/67/33 69/68/33 68/66/32
f 33/67/33 34/69/34 70/70/34 69/68/33
f 34/69/34 35/71/35 71/72/35 70/70/34
f 35/71/35 36/73/36 72/74/36 71/72/35
f 36/73/36 1/1/1 37/4/1 72/74/36
f 37/75/37 38/76/37 74/77/37 73/78/37
f 38/76/37 39/79/37 75/80/37 74/77/37
f 39/79/37 40/81/37 76/82/37 75/80/37
f 40/81/37 41/83/37 77/84/37 76/82/37
f 41/83/37 42/85/37 78/86/37 77/84/37
f 42/85/37 43/87/37 79/88/37 78/86/37
f 43/87/37 44/89/37 80/90/37 79/88/37
f 44/89/37 45/91/37 81/92/37 80/90/37
f 45/91/37 46/93/37 82/94/37 81/92/37
f 46/93/37 47/95/37 83/96/37 82/94/37
f 47/95/37 48/97/37 84/98/37 83/96/37
f 48/97/37 49/99/37 85/100/37 84/98/37
f 49/99/37 50/101/37 86/102/37 85/100/37
f 50/101/37 51/103/37 87/104/37 86/102/37
f 51/103/37 52/105/37 88/106/37 87/104/37
f 52/105/37 53/107/37 89/108/37 88/106/37
f 53/107/37 54/109/37 90/110/37 89/108/37
f 54/109/37 55/111/37 91/112/37 90/110/37
f 55/111/37 56/113/37 92/114/37 91/112/37
f 56/113/37 57/115/37 93/116/37 92/114/37
f 57/115/37 58/117/37 94/118/37 93/116/37
f 58/117/37 59/119/37 95/120/37 94/118/37
f 59/119/37 60/121/37 96/122/37 95/120/37
f 60/121/37 61/123/37 97/124/37 96/122/37
f 61/123/37 62/125/37 98/126/37 97/124/37
f 62/125/37 63/127/37 99/128/37 98/126/37
f 63/127/37 64/129/37 100/130/37 99/128/37
f 64/129/37 65/131/37 101/132/37 100/130/37
f 65/131/37 66/133/37 102/134/37 101/132/37
f 66/133/37 67/135/37 103/136/37 102/134/37
f 67/135/37 68/137/37 104/138/37 103/136/37
f 68/137/37 69/139/37 105/140/37 104/138/37
f 69/139/37 70/141/37 106/142/37 105/140/37
f 70/141/37 71/143/37 107/144/37 106/142/37
f 71/143/37 72/145/37 108/146/37 107/144/37
f 72/145/37 37/75/37 73/78/37 108/146/37
f 73/147/1 74/148/2 110/149/2 109/150/1
f 74/148/2 75/151/3 111/152/3 110/149/2
f 75/151/3 76/153/4 112/154/4 111/152/3
f 76/153/4 77/155/5 113/156/5 112/154/4
f 77/155/5 78/157/6 114/158/6 113/156/5
f 78/157/6 79/159/7 115/160/7 114/158/6
f 79/159/7 80/161/8 116/162/8 115/160/7
f 80/161/8 81/163/9 117/164/9 116/162/8
f 81/163/9 82/165/10 118/166/10 117/164/9
f 82/165/10 83/167/11 119/168/11 118/166/10
f 83/167/11 84/169/12 120/170/12 119/168/11
f 84/169/12 85/171/13 121/172/13 120/170/12
f 85/171/13 86/173/14 122/174/14 121/172/13
f 86/173/14 87/175/15 123/176/15 122/174/14
f 87/175/15 88/177/16 124/178/16 123/176/15
f 88/177/16 89/179/17 125/180/17 124/178/16
f 89/179/17 90/181/18 126/182/18 125/180/17
f 90/181/18 91/183/19 127/184/19 126/182/18
f 91/183/19 92/185/20 128/186/20 127/184/19
f 92/185/20 93/187/21 129/188/21 128/186/20
f 93/187/21 94/189/22 130/190/22 129/188/21
f 94/189/22 95/191/23 131/192/23 130/190/22
f 95/191/23 96/193/24 132/194/24 131/192/23
f 96/193/24 97/195/25 133/196/25 132/194/24
f 97/195/25 98/197/26 134/198/26 133/196/25
f 98/197/26 99/199/27 135/200/27 134/198/26
f 99/199/27 100/201/28 136/202/28 135/200/27
f 100/201/28 101/203/29 137/204/29 136/202/28
f 101/203/29 102/205/30 138/206/30 137/204/29
f 102/205/30 103/207/31 139/208/31 138/206/30
f 103/207/31 104/209/32 140/210/32 139/208/31
f 104/209/32 105/211/33 141/212/33 140/210/32
f 105/211/33 106/213/34 142/214/34 141/212/33
f 106/213/34 107/215/35 143/216/35 142/214/34
f 107/215/35 108/217/36 144/218/36 143/216/35
f 108/217/36 73/219/1 109/220/1 144/218/36
f 109/221/37 110/222/37 146/223/37
f 110/222/37 111/224/37 146/223/37
f 111/224/37 112/225/37 146/223/37
f 112/225/37 113/226/37 146/223/37
f 113/226/37 114/227/37 146/223/37
f 114/227/37 115/228/37 146/223/37
f 115/228/37 116/229/37 146/223/37
f 116/229/37 117/230/37 146/223/37
f 117/230/37 118/231/37 146/223/37
f 118/231/37 119/232/37 146/223/37
f 119/232/37 120/233/37 146/223/37
f 120/233/37 121/234/37 146/223/37
f 121/234/37 122/235/37 146/223/37
f 122/235/37 123/236/37 146/223/37
f 123/236/37 124/237/37 146/223/37
f 124/237/37 125/238/37 146/223/37
f 125/238/37 126/239/37 146/223/37
f 126/239/37 127/240/37 146/223/37
f 127/240/37 128/241/37 146/223/37
f 128/241/37 129/242/37 146/223/37
f 129/242/37 130/243/37 146/223/37
f 130/243/37 131/244/37 146/223/37
f 131/244/37 132/245/37 146/223/37
f 132/245/37 133/246/37 146/223/37
f 133/246/37 134/247/37 146/223/37
f 134/247/37 135/248/37 146/223/37
f 135/248/37 136/249/37 146/223/37
f 136/249/37 137/250/37 146/223/37
f 137/250/37 138/251/37 146/223/37
f 138/251/37 139/252/37 146/223/37
f 139/252/37 140/253/37 146/223/37
f 140/253/37 141/254/37 146/223/37
f 141/254/37 142/255/37 146/223/37
f 142/255/37 143/256/37 146/223/37
f 143/256/37 144/257/37 146/223/37
f 144/257/37 109/221/37 146/223/37
f 2/258/38 1/259/38 145/260/38
f 3/261/38 2/258/38 145/260/38
f 4/262/38 3/261/38 145/260/38
f 5/263/38 4/262/38 145/260/38
f 6/264/38 5/263/38 145/260/38
f 7/265/38 6/264/38 145/260/38
f 8/266/38 7/265/38 145/260/38
f 9/267/38 8/266/38 145/260/38
f 10/268/38 9/267/38 145/260/38
f 11/269/38 10/268/38 145/260/38
f 12/270/38 11/269/38 145/260/38
f 13/271/38 12/270/38 145/260/38
f 14/272/38 13/271/38 145/260/38
f 15/273/38 14/272/38 145/260/38
f 16/274/38 15/273/38 145/260/38
f 17/275/38 16/274/38 145/260/38
f 18/276/38 17/275/38 145/260/38
f 19/277/38 18/276/38 145/260/38
f 20/278/38 19/277/38 145/260/38
f 21/279/38 20/278/38 145/260/38
f 22/280/38 21/279/38 145/260/38
f 23/281/38 22/280/38 145/260/38
f 24/282/38 23/281/38 145/260/38
f 25/283/38 24/282/38 145/260/38
f 26/284/38 25/283/38 145/260/38
f 27/285/38 26/284/38 145/260/38
f 28/286/38 27/285/38 145/260/38
f 29/287/38 28/286/38 145/260/38
f 30/288/38 29/287/38 145/260/38
f 31/289/38 30/288/38 145/260/38
f 32/290/38 31/289/38 145/260/38
f 33/291/38 32/290/38 145/260/38
f 34/292/38 33/291/38 145/260/38
f 35/293/38 34/292/38 145/260/38
f 36/294/38 35/293/38 145/260/38
f 1/259/38 36/294/38 145/260/38
f 148/295/38 147/296/38 171/297/38 174/298/38
f 150/299/39 159/300/39 175/301/40 164/302/40
f 148/303/28 152/304/28 149/305/28 147/306/28
f 174/307/1 173/308/41 152/309/41 148/310/1
f 147/311/19 149/312/42 172/313/42 171/314/19
f 164/315/28 165/316/28 156/317/28 150/318/28
f 152/309/41 173/308/41 178/319/43 153/320/43
f 153/320/43 178/319/43 180/321/44 154/322/44
f 154/322/44 180/321/44 160/323/45 155/324/45
f 155/324/45 160/323/45 181/325/46 151/326/46
f 172/313/42 149/312/42 168/327/47 179/328/47
f 179/328/47 168/327/47 169/329/48 161/330/48
f 161/330/48 169/329/48 170/331/49 162/332/49
f 162/332/49 170/331/49 163/333/50 182/334/50
f 159/300/39 150/299/39 156/335/51 176/336/51
f 176/336/51 156/335/51 157/337/52 185/338/52
f 185/338/52 157/337/52 158/339/53 183/340/53
f 183/340/53 158/339/53 151/326/46 181/325/46
f 164/302/40 175/301/40 177/341/54 165/342/54
f 165/342/54 177/341/54 186/343/55 166/344/55
f 166/344/55 186/343/55 184/345/56 167/346/56
f 167/346/56 184/345/56 182/334/50 163/333/50
f 149/305/28 152/304/28 153/347/28 168/348/28
f 168/348/28 153/347/28 154/349/28 169/350/28
f 169/350/28 154/349/28 155/351/28 170/352/28
f 170/352/28 155/351/28 151/353/28 163/354/28
f 163/354/28 151/353/28 158/355/28 167/356/28
f 167/356/28 158/355/28 157/357/28 166/358/28
f 166/358/28 157/357/28 156/317/28 165/316/28
f 171/303/10 172/304/10 173/305/10 174/306/10
f 159/315/10 176/316/10 177/359/10 175/318/10
f 173/305/10 172/304/10 179/347/10 178/348/10
f 178/348/10 179/347/10 161/349/10 180/350/10
f 180/350/10 161/349/10 162/351/10 160/352/10
f 160/352/10 162/351/10 182/360/10 181/354/10
f 181/354/10 182/360/10 184/355/10 183/361/10
f 183/361/10 184/355/10 186/357/10 185/358/10
f 185/358/10 186/357/10 177/359/10 176/316/10
s 0
f 174/362/28 173/362/28 172/362/28
f 174/362/28 172/362/28 171/362/28
f 172/362/10 179/362/10 178/362/10
f 172/362/10 178/362/10 173/362/10
