# Blender 3.4.1
# www.blender.org
mtllib DiceTray_Final.mtl
o DiceTray_LP
v 4.500000 0.000000 3.929793
v 4.500000 -0.000000 -4.171396
v -4.500000 0.000000 3.929794
v -4.500000 -0.000000 -4.171394
v 4.500000 0.380000 3.929793
v 4.500000 0.380000 -4.171396
v -4.500000 0.380000 3.929794
v -4.500000 0.380000 -4.171394
v 4.320000 0.380000 3.749792
v -4.320000 0.380000 -3.991395
v -4.320000 0.380000 3.749794
v 4.319999 1.064000 3.749792
v 4.319999 3.040000 -3.991396
v -4.320000 3.040000 -3.991395
v -4.320001 1.064000 3.749794
v 4.139999 3.040000 -3.811396
v -4.140000 3.040000 -3.811395
v -4.140000 1.064000 3.569793
v 4.140000 0.095000 3.569793
v -4.140000 0.095000 -3.811395
v -4.140000 0.095000 3.569794
v 4.319999 0.380000 -3.991395
v 4.319999 1.064000 1.401791
v -4.320001 1.064000 1.401792
v 4.139999 1.064000 1.401791
v -4.140000 1.064000 1.401792
v 4.139999 0.095000 -3.811396
v 4.320000 3.040000 0.591038
v 4.140000 3.040000 0.598998
v -4.140000 3.040000 0.598999
v -4.320000 3.040000 0.591039
v -2.888498 0.000000 3.929793
v 2.888500 0.000000 3.929793
v -2.888498 0.380000 3.749794
v 2.888500 0.380000 3.749793
v -2.888498 1.064000 3.749794
v 2.888500 1.064000 3.749793
v 4.139999 1.064000 3.569793
v -2.888498 0.380000 3.929793
v -2.888498 1.064000 4.343272
v 2.888500 0.380000 3.929792
v -2.888498 0.000000 4.343273
v 2.888500 0.000000 4.343273
v 2.888501 1.064000 4.343273
vn -0.0000 1.0000 -0.0000
vn 1.0000 -0.0000 -0.0000
vn -0.0000 -0.0000 -1.0000
vn -1.0000 -0.0000 -0.0000
vn -0.0000 -0.0000 1.0000
vn 0.0205 0.3779 0.9256
vn -0.0205 0.3779 0.9256
vt 0.844429 0.895598
vt 0.732679 0.473416
vt 0.844429 0.439754
vt 0.888887 0.439771
vt 0.567741 0.490513
vt 0.642002 0.494728
vt 0.888887 0.946190
vt 0.567741 0.946357
vt 0.864686 0.895598
vt 0.732679 0.493672
vt 0.001000 0.001176
vt 0.864686 0.439754
vt 0.868630 0.439771
vt 0.456844 0.001000
vt 0.587998 0.490513
vt 0.642002 0.514984
vt 0.001196 0.507595
vt 0.868630 0.946190
vt 0.587998 0.946357
vt 0.457039 0.507419
vt 0.771250 0.419497
vt 0.011132 0.011300
vt 0.796192 0.336128
vt 0.446907 0.497294
vt 0.564713 0.996530
vt 0.670526 0.003561
vt 0.670526 0.439148
vt 0.011320 0.497463
vt 0.715643 0.373646
vt 0.734787 0.419497
vt 0.796192 0.372590
vt 0.494167 0.001000
vt 0.422916 0.510368
vt 0.629452 0.855084
vt 0.259296 0.510761
vt 0.422916 0.996530
vt 0.812324 0.003561
vt 0.259296 0.996924
vt 0.706988 0.439148
vt 0.715643 0.410108
vt 0.493487 0.487162
vt 0.262462 0.976667
vt 0.249167 0.520890
vt 0.665593 0.472019
vt 0.249167 0.986795
vt 0.262462 0.510761
vt 0.089338 0.972563
vt 0.789608 0.905659
vt 0.194674 0.557232
vt 0.503630 0.477048
vt 0.438756 0.487289
vt 0.508604 0.056689
vt 0.841263 0.439754
vt 0.023425 0.021383
vt 0.419452 0.510761
vt 0.246328 0.972563
vt 0.438756 0.021383
vt 0.841263 0.905659
vt 0.246328 0.557232
vt 0.446719 0.011132
vt 0.564713 0.510368
vt 0.771250 0.855084
vt 0.626286 0.001185
vt 0.734787 0.551616
vt 0.598487 0.035360
vt 0.625606 0.487346
vt 0.706988 0.307029
vt 0.577180 0.035360
vt 0.626272 0.011313
vt 0.560258 0.178679
vt 0.588361 0.035448
vt 0.625621 0.477218
vt 0.194674 0.679223
vt 0.587306 0.035448
vt 0.023425 0.487289
vt 0.419452 0.976667
vt 0.508604 0.472019
vt 0.629452 0.597236
vt 0.001448 0.510761
vt 0.599496 0.150147
vt 0.001000 0.520890
vt 0.665593 0.223852
vt 0.589360 0.150058
vt 0.001000 0.986795
vt 0.089338 0.724395
vt 0.586307 0.150058
vt 0.001448 0.996924
vt 0.812324 0.261409
vt 0.576171 0.150147
vt 0.732679 0.494728
vt 0.675960 0.539306
vt 0.642002 0.473416
vt 0.796192 0.324944
vt 0.011289 0.416914
vt 0.796192 0.373646
vt 0.696217 0.549434
vt 0.011163 0.091849
vt 0.715643 0.336128
vt 0.775935 0.335072
vt 0.796192 0.410108
vt 0.493600 0.406613
vt 0.732679 0.549434
vt 0.715643 0.372590
vt 0.739473 0.335072
vt 0.494054 0.081549
vt 0.560258 0.056689
vt 0.789608 0.439754
vt 0.504281 0.011143
vt 0.732679 0.514984
vt 0.001161 0.416918
vt 0.696217 0.539306
vt 0.031564 0.647498
vt 0.460206 0.406566
vt 0.732679 0.516040
vt 0.642002 0.493672
vt 0.001035 0.091853
vt 0.775935 0.324944
vt 0.088283 0.647498
vt 0.675960 0.516040
vt 0.088283 0.972563
vt 0.796192 0.301678
vt 0.031564 0.972563
vt 0.460660 0.081502
vt 0.739473 0.301678
s 1
usemtl 01_-_Default.001
f 20/54/1 21/57/1 19/51/1 27/75/1
f 2/3/2 6/12/2 5/9/2 1/1/2
f 4/7/3 8/18/3 6/13/3 2/4/3
f 3/5/4 7/15/4 8/19/4 4/8/4
f 43/120/5 44/122/5 40/112/5 42/118/5
f 5/11/1 6/14/1 22/60/1 9/22/1
f 8/20/1 10/24/1 22/60/1 6/14/1
f 7/17/1 11/28/1 10/24/1 8/20/1
f 22/62/2 23/64/2 12/30/2 9/21/2
f 10/25/3 14/36/3 13/33/3 22/61/3
f 10/26/4 31/88/4 14/37/4
f 23/63/1 25/69/1 38/108/1 12/32/1
f 14/38/1 17/45/1 16/43/1 13/35/1
f 31/87/1 30/84/1 17/45/1 14/38/1
f 37/105/1 38/108/1 18/50/1 36/101/1
f 25/70/4 27/77/4 19/52/4 38/106/4
f 17/46/5 20/55/5 27/76/5 16/42/5
f 17/47/2 30/85/2 20/56/2
f 18/48/3 38/107/3 19/53/3 21/58/3
f 22/62/2 28/78/2 23/64/2
f 11/27/4 15/39/4 24/67/4 10/26/4
f 24/66/1 15/41/1 18/50/1 26/72/1
f 25/70/4 29/82/4 27/77/4
f 18/49/2 21/59/2 20/56/2 26/73/2
f 10/26/4 24/67/4 31/88/4
f 30/85/2 26/73/2 20/56/2
f 22/62/2 13/34/2 28/78/2
f 28/79/1 13/35/1 16/43/1 29/81/1
f 29/82/4 16/44/4 27/77/4
f 1/2/5 5/10/5 41/115/5 33/92/5
f 7/16/5 3/6/5 32/90/5 39/109/5
f 41/116/1 5/11/1 9/22/1 35/97/1
f 11/28/1 7/17/1 39/110/1 34/94/1
f 9/23/5 12/31/5 37/103/5 35/98/5
f 15/40/5 11/29/5 34/95/5 36/100/5
f 37/105/1 12/32/1 38/108/1
f 18/50/1 15/41/1 36/101/1
f 35/99/2 37/104/2 44/124/2 41/117/2
f 37/105/1 36/101/1 40/113/1 44/123/1
f 36/102/4 34/96/4 39/111/4 40/114/4
f 23/65/6 28/80/6 29/83/6 25/71/6
f 24/68/7 26/74/7 30/86/7 31/89/7
f 33/93/2 41/117/2 44/124/2 43/121/2
f 39/111/4 32/91/4 42/119/4 40/114/4
