# Blender 3.5.1
# www.blender.org
mtllib Collider.mtl
o Plane003
v -8.406425 0.000000 1.979387
v -8.406425 0.000001 12.547417
v -8.406425 -0.000001 -11.985828
v -4.894032 -0.000001 -11.985828
v -4.894032 0.000000 1.979387
v -4.894032 1.376110 12.547418
v 3.833056 -0.000001 -11.985828
v 3.833056 0.000000 1.979387
v 3.833056 1.376110 12.547418
v 5.634434 -0.000001 -11.985828
v 5.634434 0.000000 1.979387
v -6.679741 -0.000001 -11.985828
v -6.679741 0.000000 1.979387
v -8.406425 0.000000 9.026042
v -4.894032 1.376110 10.796448
v 3.833056 1.376110 10.796448
v -6.679741 0.000000 9.026042
v 5.634435 0.000000 9.026042
v 5.634434 -0.000000 -1.443554
v 3.833056 -0.000000 -1.443554
v -4.894032 -0.000000 -1.443554
v -6.679741 -0.000000 -1.443554
v -8.406425 -0.000000 -1.443554
v 7.318435 -0.000001 -11.985828
v 7.318435 -0.000000 -1.443554
v 7.318435 0.000000 1.979387
v 7.318437 0.000000 9.026042
v 7.318435 0.000001 12.547418
v -8.406425 -0.000001 -15.376841
v -6.679741 -0.000001 -15.376841
v -4.894032 -0.000001 -15.376841
v 3.833056 -0.000001 -15.376841
v 5.634434 -0.000001 -15.376841
v 7.318435 -0.000001 -15.376841
v 7.318435 1.376110 1.979387
v 7.318437 1.376110 9.026042
v 7.318435 1.376110 12.547418
v 5.634434 1.376110 12.547418
v -6.679741 1.376110 12.547418
v -8.406425 1.376110 12.547417
v -8.406425 1.376110 9.026042
v -8.406425 1.376110 1.979387
v -8.406425 1.376110 -1.443554
v -8.406425 1.376109 -11.985828
v -6.679741 1.376109 -11.985828
v -6.679741 1.376109 -15.376841
v -8.406425 1.376109 -15.376841
v 7.318435 1.376109 -15.376841
v 5.634434 1.376109 -15.376841
v 5.634434 1.376109 -11.985828
v 7.318435 1.376109 -11.985828
v 7.318435 1.376110 -1.443554
v 5.634434 0.000001 12.547418
v -6.679741 0.000001 12.547418
v 7.318435 1.376110 18.706152
v 5.634434 1.376110 18.706152
v 3.833056 1.376110 18.706152
v -4.894032 1.376110 18.706152
v -6.679741 1.376110 18.706152
v -8.406425 1.376110 18.706152
v -8.406425 -0.000001 -19.181580
v -6.679741 -0.000001 -19.181580
v -4.894032 -0.000001 -19.181580
v 3.833056 -0.000001 -19.181580
v 5.634435 -0.000001 -19.181580
v 7.318435 -0.000001 -19.181580
v -15.389270 1.376111 18.706152
v -15.389270 1.376110 12.547418
v -15.389270 1.376110 9.026042
v -15.389270 1.376110 1.979387
v -15.389270 0.000000 1.979387
v -15.389270 -0.000000 -1.443554
v -15.389270 1.376110 -1.443554
v -15.389270 1.376109 -11.985828
v -15.389270 1.376109 -15.376841
v -15.389270 -0.000001 -15.376841
v -15.389270 -0.000001 -19.181580
v 14.406826 1.376110 18.706152
v 14.406826 1.376110 12.547418
v 14.406826 1.376110 9.026042
v 14.406826 1.376110 1.979387
v 14.406826 0.000000 1.979387
v 14.406826 -0.000000 -1.443554
v 14.406826 1.376110 -1.443554
v 14.406826 1.376109 -11.985828
v 14.406826 1.376109 -15.376842
v 14.406826 -0.000001 -15.376842
v 14.406826 -0.000001 -19.181580
vn -0.0000 1.0000 -0.0000
vn -0.0000 -0.0000 -1.0000
vn 0.6071 0.7947 -0.0000
vn -0.0000 0.7895 -0.6137
vn 0.6104 0.7921 -0.0000
vn -0.6071 0.7947 -0.0000
vn -1.0000 -0.0000 -0.0000
vn 1.0000 -0.0000 -0.0000
vn -0.0000 -0.0000 1.0000
vn -0.6104 0.7921 -0.0000
vt 0.500395 0.548132
vt 0.500395 0.336771
vt 0.500395 0.827436
vt 0.570643 0.827436
vt 0.570643 0.548132
vt 0.570643 0.336771
vt 0.745185 0.827436
vt 0.745185 0.548132
vt 0.745185 0.336771
vt 0.781212 0.827436
vt 0.781212 0.548132
vt 0.534929 0.827436
vt 0.534929 0.548132
vt 0.500395 0.407199
vt 0.570643 0.371791
vt 0.745185 0.371791
vt 0.534929 0.407199
vt 0.781212 0.407199
vt 0.781212 0.616591
vt 0.745185 0.616591
vt 0.570643 0.616591
vt 0.534929 0.616591
vt 0.500395 0.616591
vt 0.814892 0.827436
vt 0.814892 0.616591
vt 0.814892 0.548132
vt 0.814892 0.407199
vt 0.814892 0.336771
vt 0.500395 0.895257
vt 0.534929 0.895256
vt 0.570643 0.895256
vt 0.745185 0.895256
vt 0.781212 0.895256
vt 0.814892 0.895256
vt 0.814892 0.548132
vt 0.814892 0.407199
vt 0.814892 0.336771
vt 0.781212 0.336771
vt 0.534929 0.336771
vt 0.500395 0.336771
vt 0.500395 0.407199
vt 0.500395 0.548132
vt 0.500395 0.616591
vt 0.500395 0.827436
vt 0.534929 0.827436
vt 0.534929 0.895256
vt 0.500395 0.895257
vt 0.814892 0.895256
vt 0.781212 0.895256
vt 0.781212 0.827436
vt 0.814892 0.827436
vt 0.814892 0.616591
vt 0.781212 0.338614
vt 0.534929 0.337705
vt 0.814892 0.213597
vt 0.781212 0.213597
vt 0.745185 0.213597
vt 0.570643 0.213597
vt 0.534929 0.213597
vt 0.500395 0.213597
vt 0.500395 0.971351
vt 0.534929 0.971351
vt 0.570643 0.971351
vt 0.745185 0.971351
vt 0.781212 0.971351
vt 0.814892 0.971351
vt 0.360738 0.213597
vt 0.360738 0.336771
vt 0.360738 0.407199
vt 0.360738 0.548132
vt 0.360738 0.548132
vt 0.360738 0.616591
vt 0.360738 0.616591
vt 0.360738 0.827436
vt 0.360738 0.895257
vt 0.360738 0.895257
vt 0.360738 0.971351
vt 0.956660 0.213597
vt 0.956660 0.336771
vt 0.956660 0.407199
vt 0.956660 0.548132
vt 0.956660 0.548132
vt 0.956660 0.616591
vt 0.956660 0.616591
vt 0.956660 0.827436
vt 0.956660 0.895257
vt 0.956660 0.895257
vt 0.956660 0.971351
s 1
usemtl 03_-_Default
f 22/22/1 1/1/1 13/13/1
f 20/20/1 5/5/1 8/8/1
f 5/5/1 13/13/1 17/17/1
f 17/17/1 8/8/1 5/5/1
f 19/19/1 8/8/1 11/11/1
f 11/11/1 8/8/1 18/18/1
f 25/25/1 11/11/1 26/26/1
f 21/21/1 13/13/1 5/5/1
f 14/14/1 13/13/1 1/1/1
f 54/54/2 39/39/2 6/6/2
f 9/9/1 15/15/1 6/6/1
f 53/53/3 16/16/3 9/9/3
f 2/2/1 17/17/1 14/14/1
f 16/16/4 17/17/4 15/15/4
f 3/3/1 22/22/1 12/12/1
f 4/4/1 20/20/1 7/7/1
f 7/7/1 19/19/1 10/10/1
f 12/12/1 21/21/1 4/4/1
f 18/18/1 28/28/1 27/27/1
f 83/83/1 26/26/1 82/82/1
f 18/18/1 26/26/1 11/11/1
f 19/19/1 24/24/1 10/10/1
f 4/4/5 46/46/5 45/45/5
f 7/7/1 31/31/1 4/4/1
f 50/50/6 32/32/6 7/7/6
f 45/45/1 47/47/1 44/44/1
f 51/51/1 49/49/1 50/50/1
f 27/27/7 35/35/7 26/26/7
f 28/28/7 36/36/7 27/27/7
f 53/53/2 37/37/2 28/28/2
f 2/2/2 39/39/2 54/54/2
f 14/14/8 40/40/8 2/2/8
f 1/1/8 41/41/8 14/14/8
f 70/70/2 1/1/2 71/71/2
f 3/3/8 43/43/8 23/23/8
f 12/12/9 44/44/9 3/3/9
f 12/12/9 4/4/9 45/45/9
f 31/31/2 30/30/2 46/46/2
f 29/29/2 46/46/2 30/30/2
f 75/75/2 29/29/2 76/76/2
f 33/33/2 48/48/2 34/34/2
f 33/33/2 32/32/2 49/49/2
f 7/7/9 10/10/9 50/50/9
f 24/24/9 50/50/9 10/10/9
f 25/25/7 51/51/7 24/24/7
f 84/84/9 25/25/9 83/83/9
f 9/9/2 38/38/2 53/53/2
f 15/15/10 54/54/10 6/6/10
f 39/39/1 60/60/1 59/59/1
f 6/6/1 57/57/1 9/9/1
f 9/9/1 56/56/1 38/38/1
f 38/38/1 55/55/1 37/37/1
f 39/39/1 58/58/1 6/6/1
f 31/31/1 62/62/1 30/30/1
f 32/32/1 63/63/1 31/31/1
f 33/33/1 64/64/1 32/32/1
f 30/30/1 61/61/1 29/29/1
f 34/34/1 65/65/1 33/33/1
f 42/42/1 69/69/1 41/41/1
f 60/60/1 68/68/1 67/67/1
f 44/44/1 73/73/1 43/43/1
f 40/40/1 69/69/1 68/68/1
f 23/23/1 71/71/1 1/1/1
f 47/47/1 74/74/1 44/44/1
f 43/43/9 72/72/9 23/23/9
f 61/61/1 76/76/1 29/29/1
f 37/37/1 80/80/1 36/36/1
f 51/51/1 86/86/1 48/48/1
f 35/35/1 80/80/1 81/81/1
f 51/51/1 84/84/1 85/85/1
f 66/66/1 87/87/1 88/88/1
f 35/35/2 82/82/2 26/26/2
f 48/48/2 87/87/2 34/34/2
f 55/55/1 79/79/1 37/37/1
f 22/22/1 23/23/1 1/1/1
f 20/20/1 21/21/1 5/5/1
f 17/17/1 18/18/1 8/8/1
f 19/19/1 20/20/1 8/8/1
f 25/25/1 19/19/1 11/11/1
f 21/21/1 22/22/1 13/13/1
f 14/14/1 17/17/1 13/13/1
f 9/9/1 16/16/1 15/15/1
f 53/53/3 18/18/3 16/16/3
f 2/2/1 54/54/1 17/17/1
f 16/16/4 18/18/4 17/17/4
f 3/3/1 23/23/1 22/22/1
f 4/4/1 21/21/1 20/20/1
f 7/7/1 20/20/1 19/19/1
f 12/12/1 22/22/1 21/21/1
f 18/18/1 53/53/1 28/28/1
f 83/83/1 25/25/1 26/26/1
f 18/18/1 27/27/1 26/26/1
f 19/19/1 25/25/1 24/24/1
f 4/4/5 31/31/5 46/46/5
f 7/7/1 32/32/1 31/31/1
f 50/50/6 49/49/6 32/32/6
f 45/45/1 46/46/1 47/47/1
f 51/51/1 48/48/1 49/49/1
f 27/27/7 36/36/7 35/35/7
f 28/28/7 37/37/7 36/36/7
f 53/53/2 38/38/2 37/37/2
f 2/2/2 40/40/2 39/39/2
f 14/14/8 41/41/8 40/40/8
f 1/1/8 42/42/8 41/41/8
f 70/70/2 42/42/2 1/1/2
f 3/3/8 44/44/8 43/43/8
f 12/12/9 45/45/9 44/44/9
f 29/29/2 47/47/2 46/46/2
f 75/75/2 47/47/2 29/29/2
f 33/33/2 49/49/2 48/48/2
f 24/24/9 51/51/9 50/50/9
f 25/25/7 52/52/7 51/51/7
f 84/84/9 52/52/9 25/25/9
f 15/15/10 17/17/10 54/54/10
f 39/39/1 40/40/1 60/60/1
f 6/6/1 58/58/1 57/57/1
f 9/9/1 57/57/1 56/56/1
f 38/38/1 56/56/1 55/55/1
f 39/39/1 59/59/1 58/58/1
f 31/31/1 63/63/1 62/62/1
f 32/32/1 64/64/1 63/63/1
f 33/33/1 65/65/1 64/64/1
f 30/30/1 62/62/1 61/61/1
f 34/34/1 66/66/1 65/65/1
f 42/42/1 70/70/1 69/69/1
f 60/60/1 40/40/1 68/68/1
f 44/44/1 74/74/1 73/73/1
f 40/40/1 41/41/1 69/69/1
f 23/23/1 72/72/1 71/71/1
f 47/47/1 75/75/1 74/74/1
f 43/43/9 73/73/9 72/72/9
f 61/61/1 77/77/1 76/76/1
f 37/37/1 79/79/1 80/80/1
f 51/51/1 85/85/1 86/86/1
f 35/35/1 36/36/1 80/80/1
f 51/51/1 52/52/1 84/84/1
f 66/66/1 34/34/1 87/87/1
f 35/35/2 81/81/2 82/82/2
f 48/48/2 86/86/2 87/87/2
f 55/55/1 78/78/1 79/79/1
