# Blender 3.5.1
# www.blender.org
mtllib B1.mtl
o Bottom1
v -0.869205 0.274035 -0.939470
v -0.771560 0.029960 -1.095870
v -1.145895 0.029960 -1.095870
v -1.366790 0.277395 -0.937320
v -1.422665 0.444170 -0.897215
v -0.901410 0.434065 -0.101425
v -1.651890 0.434065 -0.101425
v -1.650615 0.015860 0.049160
v -0.902010 0.015860 0.049160
v -0.901500 0.262000 -0.078965
v -1.651700 0.262000 -0.078965
v -1.704850 0.192870 -0.637945
v -1.704850 0.192870 -0.724145
v -1.744035 0.056890 -0.675890
v -1.655930 0.023595 -0.579010
v -1.704545 0.024320 -0.637875
v -0.898255 0.027460 -0.892940
v -1.573295 0.026180 -0.789100
v -1.764315 0.024755 -0.673280
v -1.704695 2.118180 -0.637910
v -1.708530 2.146000 -0.661250
v -1.655930 2.047985 -0.579010
v -1.651890 1.478500 -0.101155
v -1.573295 2.298365 -0.789100
v -1.435190 2.416500 -0.888230
v -1.636735 2.261030 -0.757775
v -1.708615 2.191200 -0.699180
v -0.901410 1.478500 -0.101155
v -0.898255 2.422120 -0.892945
v -1.573295 0.290800 -0.789100
v -1.573295 0.115310 -0.789100
v -1.704560 0.192785 -0.637875
v -1.655930 0.199755 -0.579010
v -0.898255 0.286645 -0.892940
v -0.894500 0.436770 -0.898955
vn -0.0011 0.4291 -0.9033
vn -0.0000 0.5395 -0.8420
vn -0.0003 0.3414 -0.9399
vn -0.7703 -0.0000 0.6377
vn -0.6373 -0.0524 0.7688
vn -0.7709 -0.0000 0.6369
vn -0.0000 -0.0003 1.0000
vn -0.0000 0.0647 0.9979
vn -0.0000 0.3084 0.9513
vn -0.0000 0.3086 0.9512
vn -0.0000 0.4617 0.8870
vn -0.9764 0.0001 0.2158
vn -0.3786 -0.1008 0.9201
vn -0.6215 -0.0072 -0.7834
vn -0.4509 0.0083 -0.8926
vn -0.4739 -0.0616 -0.8784
vn -0.9908 0.1354 -0.0001
vn -0.9909 0.1343 -0.0000
vn -0.9609 0.2769 -0.0000
vn -0.0026 0.1304 -0.9915
vn -0.0023 0.1061 -0.9943
vn -0.0079 0.0043 -1.0000
vn 0.8483 -0.0000 0.5296
vn 1.0000 -0.0003 0.0040
vn 1.0000 -0.0000 0.0040
vn 0.9999 -0.0114 0.0061
vn -0.5831 -0.0000 -0.8124
vn -1.0000 -0.0019 -0.0000
vn -1.0000 -0.0000 0.0085
vn -0.0000 -0.9999 -0.0123
vn -0.0000 0.6428 0.7660
vn -0.5493 0.0255 -0.8353
vn -0.5199 0.1086 -0.8473
vn -0.5056 -0.0386 -0.8619
vn -0.5031 -0.0026 -0.8642
vn -0.4427 -0.0000 -0.8966
vn -0.6077 0.1685 0.7761
vn -0.4728 0.3636 0.8027
vn -0.7089 0.0638 0.7024
vn -0.7710 -0.0001 0.6368
vn -0.0000 0.9999 0.0123
vn 0.9999 -0.0118 0.0081
vn 1.0000 0.0014 0.0069
vn 1.0000 -0.0011 0.0066
vn -0.9868 0.0001 0.1622
vn -0.0088 0.0045 -1.0000
vn -0.5033 0.2505 -0.8270
vn 0.0011 0.6428 0.7661
vn 1.0000 0.0019 0.0062
vt 0.404924 0.934654
vt 0.013179 0.439905
vt 0.430089 0.997558
vt 0.038343 0.377001
vt 0.557140 0.282518
vt 0.333615 0.997558
vt 0.542811 0.996110
vt 0.460666 0.282518
vt 0.276686 0.933788
vt 0.485881 0.932340
vt 0.262285 0.890808
vt 0.471481 0.889360
vt 0.691763 0.667124
vt 0.113472 0.062187
vt 0.431017 0.267547
vt 0.498348 0.667124
vt 0.330588 0.370366
vt 0.498677 0.559344
vt 0.538797 0.279100
vt 0.691608 0.559344
vt 0.005692 0.073740
vt 0.523520 0.370366
vt 0.691739 0.622780
vt 0.069128 0.063910
vt 0.498397 0.622780
vt 0.475362 0.269270
vt 0.530087 0.218752
vt 0.518437 0.224434
vt 0.530087 0.212138
vt 0.917184 0.628085
vt 0.565133 0.215841
vt 0.907084 0.663130
vt 0.553482 0.221522
vt 0.562063 0.228955
vt 0.536804 0.230906
vt 0.329219 0.322172
vt 0.316690 0.317656
vt 0.561876 0.224439
vt 0.005692 0.376357
vt 0.008682 0.001461
vt 0.524488 0.298087
vt 0.432661 0.997083
vt 0.951088 0.671044
vt 0.350516 0.306054
vt 0.561764 0.221722
vt 0.901858 0.671412
vt 0.301286 0.314939
vt 0.022245 0.224436
vt 0.696422 0.569368
vt 0.015076 0.222645
vt 0.026726 0.216964
vt 0.695433 0.576537
vt 0.040335 0.228955
vt 0.015076 0.230906
vt 0.708990 0.551277
vt 0.710031 0.404509
vt 0.498349 0.936297
vt 0.161844 0.267568
vt 0.951088 0.085455
vt 0.432661 0.411495
vt 0.730286 0.615805
vt 0.468254 0.381049
vt 0.765879 0.646250
vt 0.259058 0.382498
vt 0.713936 0.606183
vt 0.934737 0.095077
vt 0.015076 0.214054
vt 0.916212 0.113073
vt 0.695411 0.588187
vt 0.903444 0.404509
vt 0.691762 0.936298
vt 0.382645 0.062208
vt 0.397437 0.381049
vt 0.904258 0.647699
vt 0.625835 0.001461
vt 0.951088 0.602847
vt 0.432661 0.928886
vt 0.432661 0.974114
vt 0.951088 0.648074
vt 0.518460 0.224439
vt 0.516663 0.228955
vt 0.491403 0.230906
vt 0.005692 0.443154
vt 0.075479 0.001461
vt 0.006659 0.481845
vt 0.398405 0.892715
vt 0.114169 0.001000
s 1
usemtl 01_-_Default
f 1/1/1 3/6/2 4/9/3
f 22/53/4 32/80/5 33/81/6
f 28/71/7 7/16/8 6/13/8
f 6/13/8 11/25/9 10/23/10
f 10/23/10 8/18/11 9/20/11
f 20/48/12 12/28/13 32/80/5
f 27/68/14 30/76/15 13/30/16
f 12/27/17 13/29/18 14/31/19
f 4/9/3 35/86/20 1/1/1
f 5/11/21 29/73/22 35/86/20
f 17/39/23 1/2/23 34/83/23
f 10/24/24 17/40/25 34/84/26
f 5/12/27 24/60/27 25/62/27
f 13/29/18 21/51/28 27/67/28
f 11/26/29 7/15/29 33/82/29
f 8/17/30 15/36/30 9/22/30
f 29/74/31 22/55/31 28/70/31
f 4/10/27 18/42/27 31/78/27
f 18/43/32 14/32/33 31/79/34
f 13/30/16 31/79/34 14/32/33
f 30/77/27 4/10/27 31/78/27
f 26/66/35 24/59/36 30/76/15
f 14/33/37 19/45/38 16/38/39
f 32/80/5 15/34/40 33/81/6
f 15/35/29 11/26/29 33/82/29
f 23/58/29 33/82/29 7/15/29
f 27/69/31 20/49/31 26/65/31
f 20/49/31 24/61/31 26/65/31
f 22/55/31 23/56/31 28/70/31
f 29/74/31 25/63/31 24/61/31
f 3/8/30 17/41/30 18/44/30
f 19/47/30 15/36/30 16/37/41
f 17/41/30 15/36/30 18/44/30
f 35/87/42 28/72/43 6/14/44
f 6/14/44 34/84/26 35/87/42
f 35/85/23 34/83/23 1/2/23
f 1/1/1 2/3/2 3/6/2
f 22/53/4 20/48/12 32/80/5
f 28/71/7 23/57/7 7/16/8
f 6/13/8 7/16/8 11/25/9
f 10/23/10 11/25/9 8/18/11
f 20/48/12 21/50/45 12/28/13
f 27/68/14 26/66/35 30/76/15
f 4/9/3 5/11/21 35/86/20
f 5/11/21 25/64/46 29/73/22
f 17/39/23 2/4/23 1/2/23
f 10/24/24 9/21/25 17/40/25
f 5/12/27 30/77/27 24/60/27
f 13/29/18 12/27/17 21/51/28
f 29/74/31 24/61/31 22/55/31
f 4/10/27 3/7/27 18/42/27
f 18/43/32 19/46/47 14/32/33
f 13/30/16 30/76/15 31/79/34
f 30/77/27 5/12/27 4/10/27
f 16/38/39 32/80/5 14/33/37
f 32/80/5 12/28/13 14/33/37
f 32/80/5 16/38/39 15/34/40
f 15/35/29 8/19/29 11/26/29
f 23/58/29 22/54/29 33/82/29
f 27/69/31 21/52/48 20/49/31
f 20/49/31 22/55/31 24/61/31
f 3/8/30 2/5/30 17/41/30
f 19/47/30 18/44/30 15/36/30
f 17/41/30 9/22/30 15/36/30
f 35/87/42 29/75/49 28/72/43
f 6/14/44 10/24/24 34/84/26
