# Blender 3.5.1
# www.blender.org
mtllib B1_Collider.mtl
o B1_Collider
v -0.366967 0.382904 0.250381
v -0.366967 0.382904 -0.415445
v -0.366967 -0.000000 0.250381
v -0.366967 -0.000000 -0.415445
v -0.015224 0.382904 0.250381
v -0.015224 0.382904 -0.415445
v -0.015224 -0.000000 -0.415445
v -0.015224 -0.000000 0.250381
vn -0.0000 1.0000 -0.0000
vn -0.0000 -1.0000 -0.0000
vn -0.0000 -0.0000 1.0000
vn -1.0000 -0.0000 -0.0000
vn -0.0000 -0.0000 -1.0000
vn 1.0000 -0.0000 -0.0000
vt 0.000000 0.000000
vt 1.000000 0.000000
vt 1.000000 1.000000
vt 0.000000 0.000000
vt 1.000000 0.000000
vt 0.000000 0.000000
vt 0.000000 1.000000
vt 1.000000 1.000000
vt 0.000000 1.000000
vt 1.000000 1.000000
vt 0.500000 0.000000
vt 0.000000 0.000000
vt 0.500000 1.000000
vt 0.500000 0.000000
vt 1.000000 0.000000
vt 0.500000 1.000000
vt 0.000000 1.000000
vt 0.500000 0.000000
vt 0.500000 1.000000
vt 1.000000 1.000000
s 1
f 5/11/1 6/13/1 2/3/1 1/2/1
f 4/9/2 7/16/2 8/18/2 3/6/2
f 3/7/3 8/19/3 5/11/3 1/1/3
f 2/4/4 4/9/4 3/8/4 1/2/4
f 4/10/5 2/5/5 6/14/5 7/16/5
f 7/17/6 6/15/6 5/12/6 8/20/6
