# Blender 3.5.1
# www.blender.org
mtllib B2.mtl
o Bottom2
v 1.458475 0.444170 -0.897215
v 0.699285 0.444170 -0.897215
v 1.456930 0.283470 -0.081765
v 0.822135 0.266880 -0.079600
v 0.822190 0.140245 -0.026260
v 1.492650 0.145745 -0.018450
v 0.823990 0.015860 0.049160
v 1.566490 0.015860 0.049160
v 1.458380 0.434065 -0.101425
v 0.821820 0.434065 -0.101425
v 1.559960 0.027345 -0.883695
v 1.492650 0.145745 -0.939980
v 0.544095 0.065385 -1.005855
v 0.510495 0.029595 -1.066395
v 0.544095 0.028850 -1.005855
v 1.306230 0.029960 -1.095870
v 1.467945 0.241000 -0.960640
v 1.457420 0.281575 -0.935410
v 0.637710 0.272715 -0.940320
v 0.584135 0.108030 -1.011835
v 0.811485 0.026545 -0.818665
v 0.811485 2.333600 -0.818665
v 0.686335 2.438015 -0.906280
v 0.821825 1.478505 -0.101155
v 1.468450 1.478505 -0.101155
v 1.477495 2.416500 -0.888230
v 0.811485 0.421485 -0.818665
v 0.811485 0.237620 -0.818665
v 1.492650 0.145745 -0.018450
v 0.811485 0.112605 -0.818665
vn -0.0111 0.4572 0.8893
vn -0.0045 0.3122 0.9500
vn -0.0072 0.2863 0.9581
vn 0.8154 0.3649 0.4494
vn -0.0000 -0.0000 1.0000
vn 0.8693 0.4942 -0.0000
vn 0.6415 -0.0000 -0.7671
vn 1.0000 -0.0096 -0.0000
vn 1.0000 -0.0082 0.0003
vn 0.0175 -0.0023 -0.9998
vn 0.0040 0.1358 -0.9907
vn 0.0227 -0.0044 -0.9997
vn -0.0000 0.0648 0.9979
vn -0.0000 -0.0003 1.0000
vn -0.0000 0.0650 0.9979
vn -0.6707 0.1628 0.7236
vn -0.8744 -0.0000 0.4853
vn -0.7726 -0.0000 0.6349
vn -0.7290 0.6845 -0.0000
vn -0.0002 0.3966 -0.9180
vn -0.0000 0.1184 -0.9930
vn -0.0000 0.6428 0.7660
vn -0.0031 0.3455 -0.9384
vn -0.0141 0.5294 -0.8482
vn -0.0242 0.5329 -0.8459
vn -0.0038 0.2682 0.9634
vn -0.5735 -0.0000 0.8192
vn -0.9999 -0.0000 0.0144
vn -0.0000 -0.9999 -0.0123
vn 0.9296 0.3687 -0.0000
vn 0.9918 0.1282 0.0001
vn -0.0357 0.5606 -0.8273
vn 0.9680 0.2511 -0.0000
vn 0.9910 0.1336 0.0002
vn -0.6291 0.0550 0.7754
vn -0.5558 0.2687 0.7867
vn -0.9999 -0.0006 0.0136
vn -0.9999 -0.0009 0.0139
vn -0.9999 0.0003 0.0139
vn -0.9999 0.0027 0.0138
vn -0.5745 -0.0016 0.8185
vn -0.0123 0.5107 0.8597
vn -0.6258 -0.0259 0.7795
vn -0.6036 -0.0505 0.7957
vn -0.0302 0.5897 -0.8071
vn -0.9999 -0.0058 0.0143
vn -0.0000 0.4617 0.8870
vt 0.250006 0.890212
vt 0.111384 0.076246
vt 0.054347 0.890212
vt 0.969280 0.113322
vt 0.863783 0.074661
vt 0.069969 0.138808
vt 0.700184 0.070386
vt 0.533636 0.207845
vt 0.700198 0.037748
vt 0.566274 0.211937
vt 0.872990 0.039167
vt 0.034475 0.143665
vt 0.095870 0.360982
vt 0.598330 0.217723
vt 0.700662 0.005692
vt 0.001000 0.148852
vt 0.892020 0.005692
vt 0.287227 0.360982
vt 0.108780 0.137299
vt 0.864157 0.113472
vt 0.700103 0.113472
vt 0.490550 0.206171
vt 0.591892 0.074831
vt 0.003961 0.077283
vt 0.285544 0.289412
vt 0.574545 0.044317
vt 0.034475 0.072965
vt 0.483641 0.607802
vt 0.929285 0.015701
vt 0.920625 0.006478
vt 0.492864 0.603158
vt 0.015076 0.275395
vt 0.005692 0.997056
vt 0.929285 0.006286
vt 0.023735 0.280040
vt 0.526500 0.074158
vt 0.220153 0.273134
vt 0.210769 0.996962
vt 0.568178 0.019768
vt 0.252446 0.942573
vt 0.059024 0.071380
vt 0.249734 0.932116
vt 0.069480 0.073315
vt 0.038478 0.934399
vt 0.953412 0.069135
vt 0.472651 0.607343
vt 0.024670 0.976842
vt 0.939604 0.026692
vt 0.998197 0.005692
vt 0.595576 0.151143
vt 0.092647 0.294401
vt 0.694820 0.972091
vt 0.998197 0.600268
vt 0.001000 0.151143
vt 0.051010 0.376357
vt 0.965944 0.627177
vt 0.662567 0.999000
vt 0.697485 0.751715
vt 0.700104 0.382646
vt 0.221376 0.206191
vt 0.377954 0.137320
vt 0.866753 0.382646
vt 0.864134 0.751715
vt 0.619695 0.076935
vt 0.254907 0.381901
vt 0.866465 0.993456
vt 0.998197 0.107476
vt 0.493792 0.151143
vt 0.541177 0.151143
vt 0.998197 0.060090
vt 0.034475 0.143665
vt 0.872990 0.039167
vt 0.573397 0.151143
vt 0.998197 0.027871
s 1
usemtl 01_-_Default.001
f 5/9/1 29/72/2 3/5/3
f 6/12/4 29/71/5 8/16/6
f 16/36/7 12/26/7 11/23/7
f 25/61/8 1/2/9 26/64/8
f 26/65/10 2/3/11 23/55/12
f 9/20/13 24/59/14 10/21/15
f 13/29/16 14/30/17 15/34/18
f 20/46/19 14/31/19 13/28/19
f 18/42/20 2/3/11 1/1/21
f 25/63/22 22/52/22 24/58/22
f 19/44/23 17/40/24 20/47/25
f 3/5/3 10/21/15 4/7/26
f 2/4/27 22/53/27 23/56/27
f 24/60/28 27/68/28 10/22/28
f 16/37/29 15/35/29 14/32/29
f 12/27/30 3/6/31 6/12/4
f 16/36/7 17/39/7 12/26/7
f 16/38/32 20/47/25 17/40/24
f 17/41/33 18/43/34 3/6/31
f 3/6/31 1/2/9 9/19/8
f 21/49/35 20/48/36 13/29/16
f 21/50/37 5/10/38 30/73/39
f 10/22/28 28/69/28 4/8/40
f 2/4/27 28/70/41 27/67/27
f 7/15/42 29/72/2 5/9/1
f 4/8/40 30/73/39 5/10/38
f 30/74/43 19/45/44 20/48/36
f 13/29/16 15/34/18 21/49/35
f 26/66/22 23/57/22 22/52/22
f 11/25/29 21/51/29 15/35/29
f 8/18/29 7/13/29 21/51/29
f 3/5/3 4/7/26 5/9/1
f 29/72/2 6/11/5 3/5/3
f 8/16/6 11/24/6 6/12/4
f 11/24/6 12/27/30 6/12/4
f 25/61/8 9/19/8 1/2/9
f 26/65/10 1/1/21 2/3/11
f 9/20/13 25/62/14 24/59/14
f 18/42/20 19/44/23 2/3/11
f 25/63/22 26/66/22 22/52/22
f 19/44/23 18/42/20 17/40/24
f 3/5/3 9/20/13 10/21/15
f 2/4/27 27/67/27 22/53/27
f 24/60/28 22/54/28 27/68/28
f 16/37/29 11/25/29 15/35/29
f 12/27/30 17/41/33 3/6/31
f 16/38/32 14/33/45 20/47/25
f 3/6/31 18/43/34 1/2/9
f 21/49/35 30/74/43 20/48/36
f 21/50/37 7/14/46 5/10/38
f 10/22/28 27/68/28 28/69/28
f 2/4/27 19/45/44 28/70/41
f 7/15/42 8/17/47 29/72/2
f 4/8/40 28/69/28 30/73/39
f 30/74/43 28/70/41 19/45/44
f 11/25/29 8/18/29 21/51/29
