# Blender 3.5.1
# www.blender.org
mtllib B2.mtl
o Bottom2
v 0.291695 0.088834 -0.179443
v 0.139857 0.088834 -0.179443
v 0.291386 0.056694 -0.016353
v 0.164427 0.053376 -0.015920
v 0.164438 0.028049 -0.005252
v 0.298530 0.029149 -0.003690
v 0.164798 0.003172 0.009832
v 0.313298 0.003172 0.009832
v 0.291676 0.086813 -0.020285
v 0.164364 0.086813 -0.020285
v 0.311992 0.005469 -0.176739
v 0.298530 0.029149 -0.187996
v 0.108819 0.013077 -0.201171
v 0.102099 0.005919 -0.213279
v 0.108819 0.005770 -0.201171
v 0.261246 0.005992 -0.219174
v 0.293589 0.048200 -0.192128
v 0.291484 0.056315 -0.187082
v 0.127542 0.054543 -0.188064
v 0.116827 0.021606 -0.202367
v 0.162297 0.005309 -0.163733
v 0.162297 0.466720 -0.163733
v 0.137267 0.487603 -0.181256
v 0.164365 0.295701 -0.020231
v 0.293690 0.295701 -0.020231
v 0.295499 0.483300 -0.177646
v 0.162297 0.084297 -0.163733
v 0.162297 0.047524 -0.163733
v 0.298530 0.029149 -0.003690
v 0.162297 0.022521 -0.163733
vn -0.0087 0.4471 0.8945
vn -0.0081 0.4597 0.8880
vn -0.0108 0.4025 0.9154
vn -0.0059 0.2813 0.9596
vn -0.0057 0.2758 0.9612
vn 0.8693 0.4942 -0.0000
vn 0.9296 0.3685 -0.0000
vn 0.9212 0.3892 -0.0000
vn 0.6415 -0.0000 -0.7671
vn 1.0000 -0.0096 -0.0000
vn 1.0000 -0.0088 0.0002
vn 0.0116 -0.0000 -0.9999
vn 0.0067 0.1199 -0.9928
vn 0.0062 0.1319 -0.9912
vn -0.0000 0.0646 0.9979
vn -0.0000 -0.0003 1.0000
vn -0.0000 0.0649 0.9979
vn -0.6961 0.0622 0.7152
vn -0.8743 -0.0000 0.4853
vn -0.7726 -0.0000 0.6349
vn -0.7290 0.6845 -0.0000
vn -0.0024 0.3428 -0.9394
vn -0.0030 0.3573 -0.9340
vn -0.0000 0.6428 0.7660
vn -0.0163 0.4799 -0.8772
vn -0.0261 0.5279 -0.8489
vn -0.5735 -0.0000 0.8192
vn -0.9999 -0.0000 0.0144
vn -0.0000 -0.9999 -0.0123
vn 0.9680 0.2511 -0.0000
vn 0.9917 0.1288 0.0002
vn -0.0344 0.5674 -0.8227
vn 0.9911 0.1331 0.0001
vn -0.5854 0.2008 0.7855
vn -0.6093 0.0690 0.7900
vn -0.6031 0.1170 0.7890
vn -0.9999 -0.0006 0.0139
vn -0.9999 -0.0035 0.0140
vn -0.9999 -0.0005 0.0139
vn -0.9999 0.0013 0.0141
vn -0.9999 0.0015 0.0141
vn -0.5997 -0.0437 0.7991
vn -0.6004 -0.0449 0.7985
vn -0.0067 0.4887 0.8724
vt 0.250006 0.890212
vt 0.111384 0.076246
vt 0.054347 0.890212
vt 0.969280 0.113322
vt 0.863783 0.074661
vt 0.069969 0.138808
vt 0.700184 0.070386
vt 0.533636 0.207845
vt 0.700198 0.037748
vt 0.566274 0.211937
vt 0.872990 0.039167
vt 0.034475 0.143665
vt 0.598330 0.217723
vt 0.700662 0.005692
vt 0.095870 0.360982
vt 0.001000 0.148852
vt 0.892020 0.005692
vt 0.287227 0.360982
vt 0.864157 0.113472
vt 0.108780 0.137299
vt 0.700103 0.113472
vt 0.490550 0.206171
vt 0.003961 0.077283
vt 0.591892 0.074831
vt 0.285544 0.289412
vt 0.034475 0.072965
vt 0.574545 0.044317
vt 0.483641 0.607802
vt 0.929285 0.015701
vt 0.920625 0.006478
vt 0.492864 0.603158
vt 0.015076 0.275395
vt 0.005692 0.997056
vt 0.929285 0.006286
vt 0.023735 0.280040
vt 0.220153 0.273134
vt 0.526500 0.074158
vt 0.210769 0.996962
vt 0.568178 0.019768
vt 0.252446 0.942573
vt 0.059024 0.071380
vt 0.249734 0.932116
vt 0.069480 0.073315
vt 0.038478 0.934399
vt 0.953412 0.069135
vt 0.472651 0.607343
vt 0.024670 0.976842
vt 0.939604 0.026692
vt 0.595576 0.151143
vt 0.998197 0.005692
vt 0.092647 0.294401
vt 0.998197 0.600268
vt 0.001000 0.151143
vt 0.694820 0.972091
vt 0.051010 0.376357
vt 0.965944 0.627177
vt 0.662567 0.999000
vt 0.700104 0.382646
vt 0.697485 0.751715
vt 0.221376 0.206191
vt 0.377954 0.137320
vt 0.866753 0.382646
vt 0.864134 0.751715
vt 0.619695 0.076935
vt 0.254907 0.381901
vt 0.866465 0.993456
vt 0.493792 0.151143
vt 0.998197 0.107476
vt 0.541177 0.151143
vt 0.998197 0.060090
vt 0.034475 0.143665
vt 0.872990 0.039167
vt 0.573397 0.151143
vt 0.998197 0.027871
s 1
usemtl 01_-_Default.001
f 5/9/1 29/72/2 6/11/3 3/5/4 4/7/5
f 11/23/6 12/26/7 6/12/8 29/71/6 8/16/6
f 16/37/9 12/27/9 11/24/9
f 25/61/10 9/20/11 1/2/11 26/64/10
f 26/65/12 1/1/13 2/3/14 23/55/12
f 9/19/15 25/62/16 24/58/16 10/21/17
f 13/29/18 14/30/19 15/34/20
f 20/46/21 14/31/21 13/28/21
f 18/42/22 19/44/23 2/3/14 1/1/13
f 25/63/24 26/66/24 22/54/24 24/59/24
f 19/44/23 18/42/22 17/40/25 20/47/26
f 3/5/4 9/19/15 10/21/17 4/7/5
f 2/4/27 27/68/27 22/52/27 23/56/27
f 24/60/28 22/53/28 27/67/28 10/22/28
f 16/36/29 11/25/29 15/35/29 14/32/29
f 12/26/7 17/41/30 3/6/31 6/12/8
f 16/37/9 17/39/9 12/27/9
f 16/38/32 14/33/32 20/47/26 17/40/25
f 17/41/30 18/43/33 3/6/31
f 9/20/11 3/6/31 18/43/33 1/2/11
f 13/29/18 21/50/34 30/74/35 20/48/36
f 30/73/37 21/49/38 7/13/38 5/10/39
f 4/8/40 10/22/28 27/67/28 28/69/41
f 27/68/27 2/4/27 19/45/42 28/70/43
f 7/14/44 8/17/44 29/72/2 5/9/1
f 5/10/39 4/8/40 28/69/41 30/73/37
f 30/74/35 28/70/43 19/45/42 20/48/36
f 13/29/18 15/34/20 21/50/34
f 26/66/24 23/57/24 22/54/24
f 11/25/29 8/18/29 21/51/29 15/35/29
f 8/18/29 7/15/29 21/51/29
