# Blender 3.5.1
# www.blender.org
mtllib B2_Collider.mtl
o B2_Collider
v 0.336520 0.382904 0.250381
v 0.336520 0.382904 -0.415445
v 0.336520 -0.000000 0.250381
v 0.336520 -0.000000 -0.415445
v -0.015224 0.382904 0.250381
v -0.015224 0.382904 -0.415445
v -0.015224 -0.000000 -0.415445
v -0.015224 -0.000000 0.250381
vn 1.0000 -0.0000 -0.0000
vn -0.0000 -0.0000 -1.0000
vn -0.0000 1.0000 -0.0000
vn -0.0000 -1.0000 -0.0000
vn -0.0000 -0.0000 1.0000
vn -1.0000 -0.0000 -0.0000
vt 0.000000 0.000000
vt 1.000000 0.000000
vt 1.000000 0.000000
vt 0.000000 0.000000
vt 0.000000 1.000000
vt 0.000000 1.000000
vt 1.000000 0.000000
vt 1.000000 1.000000
vt 0.000000 1.000000
vt 1.000000 1.000000
vt 0.500000 0.000000
vt 1.000000 0.000000
vt 0.500000 0.000000
vt 0.500000 1.000000
vt 1.000000 1.000000
vt 0.500000 1.000000
vt 0.000000 0.000000
vt 0.500000 0.000000
vt 0.500000 1.000000
vt 1.000000 0.000000
s 1
f 1/1/1 3/6/1 4/10/1 2/3/1
f 4/9/2 7/16/2 6/13/2 2/4/2
f 1/1/3 2/5/3 6/14/3 5/11/3
f 4/10/4 3/7/4 8/18/4 7/16/4
f 3/8/5 1/2/5 5/11/5 8/19/5
f 8/20/6 5/12/6 6/15/6 7/17/6
