# Blender 3.5.1
# www.blender.org
mtllib M.mtl
o Middle
v 0.135866 0.728995 -0.182237
v 0.297809 0.722943 -0.176554
v 0.297864 0.728644 -0.020119
v 0.164366 0.728644 -0.020119
v 0.164505 0.749417 -0.010479
v 0.298064 0.749417 -0.010479
v 0.298219 0.765402 0.020084
v 0.298225 0.766074 -0.188252
v 0.302542 0.788726 -0.184642
v 0.325039 0.812607 -0.165829
v 0.325894 0.813974 -0.095671
v -0.173414 0.733052 -0.259200
v -0.173457 0.735673 -0.188508
v -0.266738 0.739621 -0.192216
v -0.173644 0.746831 -0.259034
v -0.173644 0.746831 -0.188209
v -0.160229 0.762335 -0.209696
v -0.160229 0.762335 -0.268663
v -0.180283 0.728644 -0.020119
v -0.330377 0.728644 -0.020119
v -0.180432 0.764895 0.017278
v -0.180319 0.747463 -0.011049
v -0.330209 0.755822 -0.000349
v -0.330296 0.749233 -0.010564
v 0.113778 0.754472 -0.346875
v 0.113778 0.754472 -0.197700
v 0.091330 0.768504 -0.217177
v 0.091330 0.768504 -0.367525
v 0.040121 0.788071 -0.414631
v 0.035743 0.807835 -0.410769
v 0.044320 0.807835 -0.410769
v -0.343486 0.766437 -0.143586
v -0.343361 0.765373 -0.128141
v -0.344373 0.776917 -0.128374
v -0.344441 0.777343 -0.143115
v -0.345689 0.785239 -0.135588
v -0.342324 0.756517 -0.136031
v 0.008815 0.810135 -0.292692
v -0.037283 0.810200 -0.289347
v -0.037283 0.770603 -0.289347
v 0.008815 0.769850 -0.292692
v -0.124298 0.772023 -0.243245
v -0.146691 0.811330 -0.231381
v -0.146691 0.765985 -0.231381
v 0.026944 0.769554 -0.403007
v 0.026944 0.807986 -0.403007
v 0.040121 0.769339 -0.414631
v -0.331186 0.813582 -0.115802
v -0.340909 0.813352 -0.127575
v 0.163278 0.813974 -0.095671
v 0.293485 0.739621 -0.192216
v 0.124769 0.739621 -0.192216
v 0.132517 0.726144 -0.329638
v 0.166210 0.729184 -0.298644
v -0.288559 0.722943 -0.176554
v -0.179651 0.725110 -0.178589
v -0.124298 0.772023 -0.294452
v -0.314659 0.812763 -0.157821
v -0.357521 0.811879 -0.134055
v -0.331016 0.813974 -0.095671
v -0.179981 0.813974 -0.095671
v -0.179651 0.812358 -0.178589
v 0.108819 0.811918 -0.201172
v 0.166210 0.810019 -0.298644
v 0.162297 0.812648 -0.163734
v 0.162297 0.466720 -0.163733
v 0.137267 0.487603 -0.181256
v 0.164365 0.295701 -0.020231
v 0.293690 0.295701 -0.020231
v 0.295499 0.483300 -0.177646
v -0.340939 0.423636 -0.127582
v -0.331186 0.409597 -0.115802
v -0.330378 0.295700 -0.020231
v -0.314659 0.459673 -0.157820
v -0.327347 0.452206 -0.151555
v -0.341723 0.438240 -0.139836
v -0.179651 0.484424 -0.178589
v -0.180282 0.295700 -0.020231
v -0.287038 0.483300 -0.177646
v 0.325753 0.813748 -0.018229
v 0.164394 0.813748 -0.018229
v 0.164918 0.764990 0.018175
v 0.302542 0.788726 0.002767
v -0.330361 0.813748 -0.018229
v -0.180290 0.813748 -0.018229
v -0.329860 0.771708 0.016851
v 0.294548 0.384742 -0.094946
v 0.163383 0.376873 -0.088342
v 0.298222 0.765761 -0.091162
v 0.302542 0.788726 -0.091718
v 0.298023 0.745091 -0.091368
v 0.297839 0.726041 -0.091557
vn 0.0274 -0.0009 -0.9996
vn 0.0227 -0.0039 -0.9997
vn 0.0106 -0.4917 -0.8707
vn 0.0184 -0.3776 -0.9258
vn -0.0000 -0.2247 0.9744
vn -0.0000 -0.0003 1.0000
vn -0.0000 -0.2265 0.9740
vn -0.0003 -0.8793 0.4763
vn -0.0000 -0.7410 0.6715
vn -0.0024 -0.7524 0.6587
vn -0.0039 -0.8861 0.4635
vn 0.9952 -0.0976 -0.0001
vn 0.8927 -0.4507 0.0004
vn 0.9090 -0.4168 -0.0003
vn 0.9943 -0.1067 -0.0003
vn 0.7339 -0.6792 0.0020
vn 0.7329 -0.6804 -0.0006
vn -0.0437 -0.9984 0.0370
vn -0.0364 -0.9897 -0.1381
vn -0.0087 -0.7863 -0.6178
vn 0.9999 0.0167 -0.0000
vn 0.9345 -0.3560 -0.0000
vn 0.9528 -0.3037 -0.0000
vn 0.5931 -0.8051 -0.0000
vn 0.5036 -0.8639 -0.0000
vn -0.0010 -0.2255 0.9742
vn -0.0000 -0.2331 0.9724
vn -0.0229 -0.7074 0.7065
vn -0.0403 -0.8510 0.5236
vn 0.0027 -0.7475 0.6642
vn -0.0008 -0.7937 0.6084
vn -0.0060 -0.7016 0.7125
vn -0.6795 -0.7337 -0.0000
vn -0.7025 -0.7116 0.0040
vn -0.3248 -0.9458 -0.0000
vn -0.2418 -0.9703 -0.0000
vn 0.0176 0.0137 -0.9998
vn -0.4447 0.0759 -0.8925
vn 0.4576 0.0759 -0.8859
vn -0.9951 -0.0985 0.0012
vn -0.9947 -0.1029 0.0009
vn -0.9932 -0.1164 0.0012
vn -0.9927 -0.1207 0.0010
vn 0.0724 -0.0000 0.9974
vn 0.2879 -0.0000 0.9577
vn 0.2851 -0.0000 0.9585
vn 0.4682 -0.0000 0.8836
vn 0.7235 -0.0000 0.6903
vn 0.7482 -0.0000 0.6634
vn -0.6248 -0.0000 -0.7807
vn -0.6241 -0.0000 -0.7814
vn 0.0266 -0.0000 -0.9996
vn -0.8358 -0.0013 0.5491
vn -0.7703 -0.0000 0.6377
vn -0.7710 -0.0000 0.6368
vn -0.6544 -0.0673 0.7532
vn -0.0000 1.0000 -0.0081
vn -0.0000 1.0000 -0.0086
vn -0.0000 1.0000 0.0029
vn 1.0000 -0.0096 -0.0000
vn 0.9994 -0.0306 -0.0143
vn -0.0115 0.0012 -0.9999
vn -0.0130 -0.2542 -0.9671
vn -0.0062 -0.4688 -0.8833
vn -0.0088 -0.0000 -1.0000
vn -0.8270 -0.5622 0.0033
vn -0.8060 -0.5918 0.0126
vn -0.0163 -0.9999 -0.0000
vn -0.0000 1.0000 -0.0084
vn -0.0000 1.0000 -0.0085
vn -0.5753 -0.0049 0.8179
vn -0.6276 -0.0018 0.7786
vn -0.5722 -0.0364 0.8193
vn -0.6040 -0.0004 0.7970
vn -0.6751 -0.0000 0.7377
vn -0.6679 -0.0053 0.7443
vn -0.6991 0.2459 -0.6714
vn -0.5507 -0.0061 -0.8347
vn -0.5803 0.1561 -0.7993
vn -0.4601 -0.0001 0.8879
vn -0.9915 -0.0003 -0.1301
vn -0.9985 -0.0070 0.0551
vn -0.5967 0.0110 0.8024
vn -0.0000 -0.8276 -0.5613
vn -0.0000 -0.9981 -0.0616
vn -0.0000 -0.9952 0.0976
vn 0.2603 -0.9655 -0.0000
vn -0.0032 0.9997 -0.0222
vn -0.0603 0.9956 -0.0718
vn -0.0480 0.9970 -0.0611
vn -0.0000 0.9998 -0.0195
vn -0.9999 -0.0000 0.0144
vn 0.8483 -0.0000 0.5296
vn 0.8482 -0.0000 0.5296
vn 1.0000 -0.0000 0.0040
vn -0.5831 -0.0000 -0.8124
vn 0.6770 -0.0000 -0.7360
vn 0.6596 -0.0000 -0.7517
vn 0.6415 -0.0000 -0.7671
vn -0.9999 0.0057 0.0118
vn -1.0000 -0.0049 0.0084
vn -1.0000 -0.0047 0.0085
vn -1.0000 -0.0014 0.0091
vn -1.0000 0.0024 0.0096
vn -1.0000 -0.0000 0.0085
vn -0.5735 -0.0000 0.8192
vn -0.0000 -0.6428 -0.7660
vn -0.0118 0.6037 0.7971
vn -0.0134 0.5981 0.8013
vn -0.0056 0.6243 0.7812
vn -0.0000 0.6428 0.7660
vn 0.0199 0.5978 0.8014
vn -0.0000 0.6407 0.7678
vn 0.0047 0.6307 0.7760
vn 0.0245 0.5877 0.8087
vn 0.9890 -0.1476 -0.0113
vn 0.9995 -0.0078 -0.0295
vn 0.9002 -0.4355 -0.0002
vn 0.7317 -0.6816 0.0025
vn -0.0133 0.5976 0.8016
vn 0.1369 -0.9906 -0.0000
vn 0.1048 -0.9945 -0.0000
vn 0.9999 0.0130 -0.0089
vn 0.9930 0.1184 -0.0047
vn 0.6607 -0.0000 -0.7507
vn -0.9877 -0.1562 -0.0000
vn -0.9932 -0.1164 -0.0000
vn -0.9382 0.0625 0.3405
vn -0.4351 0.0216 0.9001
vn -0.4760 -0.1616 -0.8645
vn -0.3400 -0.2039 0.9181
vn -0.6014 -0.0195 -0.7987
vn -0.5009 0.0144 -0.8654
vn -0.5850 0.0126 -0.8110
vn -0.9954 -0.0941 0.0191
vn -0.6365 0.0080 -0.7712
vt 0.213763 0.138628
vt 0.936830 0.851253
vt 0.399937 0.140573
vt 0.497297 0.724331
vt 0.816033 0.734627
vt 0.503851 0.777868
vt 0.662561 0.734627
vt 0.104225 0.834789
vt 0.662721 0.758508
vt 0.080345 0.838089
vt 0.816263 0.758508
vt 0.527731 0.781167
vt 0.816441 0.776885
vt 0.546108 0.791627
vt 0.561103 0.322028
vt 0.546880 0.720328
vt 0.754861 0.193141
vt 0.759823 0.167099
vt 0.572922 0.721563
vt 0.785687 0.139645
vt 0.600376 0.728001
vt 0.007111 0.084826
vt 0.601947 0.752012
vt 0.006128 0.108837
vt 0.220556 0.429078
vt 0.189835 0.296239
vt 0.212654 0.231104
vt 0.189784 0.320432
vt 0.220506 0.426064
vt 0.196690 0.333698
vt 0.113268 0.421526
vt 0.105366 0.223552
vt 0.189570 0.296296
vt 0.212389 0.215262
vt 0.189570 0.320534
vt 0.196475 0.346526
vt 0.204992 0.313181
vt 0.211897 0.364349
vt 0.204992 0.293000
vt 0.227811 0.197439
vt 0.988963 0.503851
vt 0.503851 0.973211
vt 0.816411 0.503851
vt 0.104225 0.895311
vt 0.988791 0.545526
vt 0.545526 0.986009
vt 0.407255 0.436077
vt 0.988921 0.525485
vt 0.525485 0.976315
vt 0.816603 0.535095
vt 0.072981 0.902077
vt 0.816504 0.527520
vt 0.080556 0.898581
vt 0.519998 0.266234
vt 0.542817 0.206478
vt 0.519998 0.317286
vt 0.911437 0.880541
vt 0.885630 0.896672
vt 0.494190 0.310620
vt 0.494190 0.259166
vt 0.517009 0.190348
vt 0.458139 0.167852
vt 0.453105 0.145132
vt 0.339693 0.001000
vt 0.329832 0.001000
vt 0.462965 0.145132
vt 0.858525 0.653399
vt 0.017135 0.192724
vt 0.859747 0.658685
vt 0.061550 0.994777
vt 0.846476 0.658605
vt 0.048279 0.994697
vt 0.845987 0.653560
vt 0.016037 0.180186
vt 0.836910 0.656136
vt 0.014602 0.171108
vt 0.038712 0.992229
vt 0.071731 0.992077
vt 0.869929 0.655985
vt 0.018471 0.204127
vt 0.406234 0.419301
vt 0.790768 0.944533
vt 0.370650 0.041410
vt 0.353239 0.419376
vt 0.423645 0.042554
vt 0.353239 0.373854
vt 0.346334 0.285921
vt 0.406234 0.372989
vt 0.790768 0.898220
vt 0.399329 0.284777
vt 0.253204 0.375486
vt 0.246299 0.301699
vt 0.227461 0.420675
vt 0.549423 0.062392
vt 0.227461 0.368545
vt 0.220556 0.305759
vt 0.442989 0.189140
vt 0.420170 0.247023
vt 0.442989 0.144958
vt 0.349809 0.003656
vt 0.458139 0.189387
vt 0.435320 0.243045
vt 0.006128 0.999000
vt 0.006579 0.862565
vt 0.761523 0.101947
vt 0.772701 0.097918
vt 0.006392 0.994971
vt 0.006128 0.808933
vt 0.193076 0.108837
vt 0.394965 0.135213
vt 0.516469 0.718971
vt 0.749411 0.223552
vt 0.532633 0.319163
vt 0.924072 0.863468
vt 0.201006 0.135213
vt 0.541539 0.272133
vt 0.209913 0.088182
vt 0.564358 0.239045
vt 0.248648 0.098790
vt 0.603093 0.235551
vt 0.088182 0.440699
vt 0.080280 0.242725
vt 0.213386 0.438207
vt 0.189570 0.321555
vt 0.499788 0.918977
vt 0.246299 0.284174
vt 0.269118 0.186302
vt 0.742523 0.087567
vt 0.050275 0.139466
vt 0.791798 0.095701
vt 0.001000 0.140482
vt 0.008086 0.992753
vt 0.006128 0.869455
vt 0.761327 0.108837
vt 0.601948 0.947355
vt 0.587694 0.108837
vt 0.600090 0.918977
vt 0.189570 0.421857
vt 0.587314 0.080460
vt 0.905736 0.946583
vt 0.255683 0.072731
vt 0.189704 0.039373
vt 0.603093 0.142620
vt 0.967215 0.947422
vt 0.007653 0.785640
vt 0.194203 0.085544
vt 0.967215 0.549735
vt 0.245166 0.466046
vt 0.405339 0.785640
vt 0.215375 0.138963
vt 0.938441 0.573742
vt 0.216391 0.442039
vt 0.662559 0.236905
vt 0.601948 0.834751
vt 0.247543 0.662654
vt 0.811234 0.236905
vt 0.396218 0.662654
vt 0.006128 0.777830
vt 0.397281 0.140199
vt 0.398298 0.446985
vt 0.221797 0.723958
vt 0.454419 0.994969
vt 0.401914 0.511922
vt 0.470558 0.999000
vt 0.471009 0.862566
vt 0.413126 0.528062
vt 0.816410 0.006128
vt 0.601948 0.895273
vt 0.414056 0.659000
vt 0.050275 0.545386
vt 0.432127 0.470494
vt 0.035688 0.553970
vt 0.417539 0.479077
vt 0.437629 0.990775
vt 0.019161 0.570026
vt 0.401013 0.495133
vt 0.213386 0.714906
vt 0.223089 0.918977
vt 0.587335 0.442039
vt 0.988963 0.006128
vt 0.006128 0.973173
vt 0.586609 0.659000
vt 0.089931 0.716198
vt 0.463881 0.443332
vt 0.082029 0.518224
vt 0.601688 0.778515
vt 0.006290 0.135340
vt 0.592757 0.377608
vt 0.191793 0.135340
vt 0.407255 0.377608
vt 0.006388 0.835436
vt 0.663195 0.776411
vt 0.407858 0.321555
vt 0.062441 0.847895
vt 0.572922 0.785701
vt 0.566073 0.348842
vt 0.760574 0.135340
vt 0.006388 0.895958
vt 0.580753 0.382144
vt 0.588050 0.135340
vt 0.601689 0.973858
vt 0.408266 0.378629
vt 0.817006 0.553358
vt 0.054718 0.907964
vt 0.579166 0.431914
vt 0.397205 0.560290
vt 0.108493 0.752260
vt 0.246415 0.569337
vt 0.508630 0.811441
vt 0.546520 0.753555
vt 0.572922 0.753365
vt 0.522758 0.753485
vt 0.500858 0.753420
s 1
usemtl 01_-_Default.002
f 70/159/1 67/150/2 1/1/3
f 1/1/3 2/3/4 70/159/1
f 4/7/5 68/153/6 69/156/6
f 69/156/6 3/5/7 4/7/5
f 82/192/8 5/9/9 6/11/10
f 6/11/10 7/13/11 82/192/8
f 3/5/7 6/11/10 5/9/9
f 5/9/9 4/7/5 3/5/7
f 89/210/12 90/211/13 83/195/14
f 83/195/14 7/14/15 89/210/12
f 83/195/14 90/211/13 11/23/16
f 11/23/16 80/186/17 83/195/14
f 12/25/18 13/29/19 14/31/20
f 13/28/21 12/26/21 15/33/22
f 15/33/22 16/35/23 13/28/21
f 17/37/24 16/35/23 15/33/22
f 15/33/22 18/39/25 17/37/24
f 20/43/26 73/167/6 78/180/6
f 78/180/6 19/41/27 20/43/26
f 22/48/28 21/45/29 86/203/30
f 22/48/28 86/203/30 23/50/31
f 22/48/28 23/50/31 24/52/32
f 20/43/26 19/41/27 22/48/28
f 22/48/28 24/52/32 20/43/26
f 25/54/33 26/56/34 27/59/35
f 27/59/35 28/60/36 25/54/33
f 29/62/37 30/63/38 31/66/39
f 32/67/40 33/69/41 34/71/42
f 34/71/42 35/73/43 32/67/40
f 38/81/44 39/84/45 40/86/46
f 40/86/46 41/88/44 38/81/44
f 42/91/47 43/93/48 44/95/49
f 45/97/50 46/99/51 30/63/38
f 45/97/50 30/63/38 29/62/37
f 45/97/50 29/62/37 47/101/52
f 71/162/53 72/164/54 48/103/55
f 48/103/55 49/107/56 71/162/53
f 11/24/57 50/109/58 81/189/59
f 81/189/59 80/187/59 11/24/57
f 6/12/60 91/212/61 89/210/12
f 89/210/12 7/14/15 6/12/60
f 79/183/62 55/121/63 56/123/64
f 56/123/64 77/177/65 79/183/62
f 14/31/20 13/29/19 56/123/64
f 56/123/64 55/121/63 14/31/20
f 53/116/66 52/113/67 26/56/34
f 26/56/34 25/54/33 53/116/66
f 45/98/68 47/102/68 41/90/68
f 41/90/68 40/87/68 45/98/68
f 61/136/69 60/134/70 84/197/59
f 84/197/59 85/200/59 61/136/69
f 65/144/71 63/140/72 26/57/73
f 26/57/73 52/114/74 65/144/71
f 38/82/75 41/89/75 27/58/76
f 27/58/76 26/57/73 63/140/72
f 38/82/75 27/58/76 63/140/72
f 36/76/77 58/129/78 35/74/79
f 33/70/80 37/78/81 76/174/82
f 76/174/82 71/162/53 33/70/80
f 52/114/74 1/2/83 65/144/71
f 51/110/84 2/3/4 1/1/3
f 1/1/3 52/115/85 51/110/84
f 52/115/85 54/119/86 51/110/84
f 18/39/25 44/96/87 17/37/24
f 58/128/88 59/130/89 49/106/90
f 49/106/90 48/105/91 58/128/88
f 4/8/92 50/108/92 88/209/92
f 88/209/92 68/154/92 4/8/92
f 13/30/93 16/36/94 62/138/93
f 62/138/93 56/124/93 13/30/93
f 61/135/95 85/201/95 21/46/95
f 61/135/95 21/46/95 22/49/95
f 62/137/95 61/135/95 22/49/95
f 56/125/95 62/137/95 22/49/95
f 56/125/95 22/49/95 19/42/95
f 77/178/95 56/125/95 19/42/95
f 77/178/95 19/42/95 78/181/95
f 57/127/96 58/129/78 46/99/51
f 46/99/51 45/97/50 57/127/96
f 31/66/39 28/61/97 47/101/52
f 47/101/52 29/62/37 31/66/39
f 64/143/98 10/20/99 9/18/99
f 9/18/99 8/17/99 64/143/98
f 86/204/100 84/198/101 60/133/102
f 86/204/100 60/133/102 48/104/103
f 23/51/104 86/204/100 48/104/103
f 24/53/105 23/51/104 48/104/103
f 20/44/105 24/53/105 48/104/103
f 48/104/103 72/165/105 73/168/105
f 20/44/105 48/104/103 73/168/105
f 1/2/83 67/151/106 66/147/106
f 66/147/106 65/144/71 1/2/83
f 66/148/107 70/160/107 87/206/107
f 87/206/107 88/208/107 66/148/107
f 81/190/108 82/193/109 83/196/110
f 83/196/110 80/188/111 81/190/108
f 74/171/107 79/184/107 77/179/107
f 77/179/107 78/182/107 74/171/107
f 85/202/112 84/199/113 86/205/114
f 86/205/114 21/47/115 85/202/112
f 66/148/107 67/152/107 70/160/107
f 69/157/107 68/155/107 88/208/107
f 88/208/107 87/206/107 69/157/107
f 50/108/92 65/145/92 66/149/92
f 66/149/92 88/209/92 50/108/92
f 8/16/116 89/210/12 91/212/61
f 91/212/61 51/111/117 8/16/116
f 89/210/12 8/16/116 9/19/118
f 9/19/118 90/211/13 89/210/12
f 90/211/13 9/19/118 10/21/119
f 10/21/119 11/23/16 90/211/13
f 82/193/109 7/15/120 83/196/110
f 16/36/94 17/38/93 62/138/93
f 44/95/49 43/93/48 62/138/93
f 62/138/93 17/38/93 44/95/49
f 42/91/47 40/86/46 39/84/45
f 39/84/45 43/93/48 42/91/47
f 40/87/68 42/92/121 57/126/122
f 57/126/122 45/98/68 40/87/68
f 47/102/68 28/60/36 27/59/35
f 27/59/35 41/90/68 47/102/68
f 57/126/122 42/92/121 44/96/87
f 44/96/87 18/39/25 57/126/122
f 3/6/60 69/158/60 87/207/60
f 87/207/60 92/213/123 3/6/60
f 92/213/123 87/207/60 70/161/60
f 70/161/60 2/4/124 92/213/123
f 51/111/117 91/212/61 92/213/123
f 92/213/123 2/4/124 51/111/117
f 3/6/60 92/213/123 91/212/61
f 91/212/61 6/12/60 3/6/60
f 82/194/92 81/191/92 50/108/92
f 50/108/92 5/10/92 82/194/92
f 4/8/92 5/10/92 50/108/92
f 50/109/58 11/24/57 10/22/91
f 50/109/58 10/22/91 64/142/91
f 65/146/91 50/109/58 64/142/91
f 63/141/91 65/146/91 64/142/91
f 63/141/91 64/142/91 31/65/91
f 31/65/91 38/83/91 63/141/91
f 48/105/91 60/134/70 61/136/69
f 48/105/91 61/136/69 62/139/91
f 48/105/91 62/139/91 58/128/88
f 43/94/91 46/100/91 58/128/88
f 58/128/88 62/139/91 43/94/91
f 39/85/91 30/64/91 46/100/91
f 46/100/91 43/94/91 39/85/91
f 38/83/91 31/65/91 30/64/91
f 30/64/91 39/85/91 38/83/91
f 52/115/85 53/117/86 54/119/86
f 54/120/125 53/118/97 25/55/97
f 25/55/97 64/143/98 54/120/125
f 64/143/98 25/55/97 28/61/97
f 28/61/97 31/66/39 64/143/98
f 34/71/42 36/75/126 35/73/43
f 32/67/40 37/79/127 33/69/41
f 49/107/56 36/77/128 34/72/129
f 33/70/80 71/162/53 49/107/56
f 49/107/56 34/72/129 33/70/80
f 36/76/77 59/131/130 58/129/78
f 49/107/56 59/132/131 36/77/128
f 58/129/78 32/68/132 35/74/79
f 58/129/78 74/170/133 32/68/132
f 74/170/133 75/172/134 37/80/135
f 37/80/135 32/68/132 74/170/133
f 75/172/134 76/175/136 37/80/135
f 79/185/96 74/170/133 58/129/78
f 55/122/96 79/185/96 58/129/78
f 14/32/96 55/122/96 58/129/78
f 15/34/96 12/27/96 14/32/96
f 14/32/96 58/129/78 15/34/96
f 18/40/96 15/34/96 58/129/78
f 58/129/78 57/127/96 18/40/96
f 8/17/99 51/112/99 54/120/125
f 54/120/125 64/143/98 8/17/99
f 71/163/107 76/176/107 75/173/107
f 75/173/107 72/166/107 71/163/107
f 72/166/107 75/173/107 74/171/107
f 73/169/107 72/166/107 74/171/107
f 78/182/107 73/169/107 74/171/107
