# Blender 3.5.1
# www.blender.org
mtllib M_Collider.mtl
o M_Collider
v -0.366967 0.674337 0.250381
v 0.336520 0.674337 0.250381
v -0.366967 0.674337 -0.415445
v 0.336520 0.674337 -0.415445
v -0.366967 0.382904 0.250381
v 0.336520 0.382904 0.250381
v -0.366967 0.382904 -0.415445
v 0.336520 0.382904 -0.415445
vn -0.0000 1.0000 -0.0000
vn -0.0000 -1.0000 -0.0000
vn -1.0000 -0.0000 -0.0000
vn -0.0000 -0.0000 -1.0000
vn 1.0000 -0.0000 -0.0000
vn -0.0000 -0.0000 1.0000
vt 0.000000 0.000000
vt 1.000000 0.000000
vt 0.000000 1.000000
vt 1.000000 1.000000
vt 1.000000 0.000000
vt 0.000000 0.000000
vt 1.000000 1.000000
vt 0.000000 1.000000
s 1
f 1/1/1 2/2/1 4/4/1 3/3/1
f 5/5/2 7/7/2 8/8/2 6/6/2
f 5/5/3 1/1/3 3/3/3 7/7/3
f 7/7/4 3/3/4 4/4/4 8/8/4
f 8/8/5 4/4/5 2/2/5 6/6/5
f 6/6/6 2/2/6 1/1/6 5/5/6
