# Blender 3.5.1
# www.blender.org
mtllib U2_Collider.mtl
o U2_Collider
v 1.682600 4.051160 1.251905
v 1.682600 4.051160 -2.077225
v 1.682600 3.371685 1.251905
v 1.682600 3.371685 -2.077225
v -0.076120 4.051160 1.251905
v -0.076120 4.051160 -2.077225
v -0.076120 3.371685 -2.077225
v -0.076120 3.371685 1.251905
vn 1.0000 -0.0000 -0.0000
vn -0.0000 -0.0000 -1.0000
vn -0.0000 1.0000 -0.0000
vn -0.0000 -1.0000 -0.0000
vn -0.0000 -0.0000 1.0000
vn -1.0000 -0.0000 -0.0000
vt 0.000000 0.000000
vt 1.000000 0.000000
vt 1.000000 0.000000
vt 0.000000 0.000000
vt 0.000000 1.000000
vt 1.000000 1.000000
vt 0.000000 1.000000
vt 1.000000 0.000000
vt 0.000000 1.000000
vt 1.000000 1.000000
vt 0.500000 0.000000
vt 1.000000 0.000000
vt 0.500000 0.000000
vt 0.500000 1.000000
vt 1.000000 1.000000
vt 0.500000 1.000000
vt 0.000000 0.000000
vt 1.000000 0.000000
vt 0.500000 0.000000
vt 0.500000 1.000000
s 1
f 3/7/1 2/3/1 1/1/1
f 7/16/2 2/4/2 4/9/2
f 2/5/3 5/11/3 1/1/3
f 3/8/4 7/16/4 4/10/4
f 1/2/5 8/20/5 3/6/5
f 5/12/6 7/17/6 8/18/6
f 3/7/1 4/10/1 2/3/1
f 7/16/2 6/13/2 2/4/2
f 2/5/3 6/14/3 5/11/3
f 3/8/4 8/19/4 7/16/4
f 1/2/5 5/11/5 8/20/5
f 5/12/6 6/15/6 7/17/6
